<svg xmlns="http://www.w3.org/2000/svg" width="30" height="30" viewBox="0 0 30 30">
    <path fill="#FFF" fill-rule="evenodd" d="M14.625 0c4.031 0 7.477 1.43 10.336 4.29 2.86 2.858 4.289 6.304 4.289 10.335 0 4.031-1.43 7.477-4.29 10.336-2.858 2.86-6.304 4.289-10.335 4.289-4.031 0-7.477-1.43-10.336-4.29C1.43 22.103 0 18.657 0 14.626c0-4.031 1.43-7.477 4.29-10.336C7.147 1.43 10.593 0 14.624 0zm0 27.984c3.75 0 6.914-1.289 9.492-3.867 2.578-2.578 3.867-5.742 3.867-9.492 0-3.75-1.289-6.914-3.867-9.492-2.578-2.578-5.742-3.867-9.492-3.867-3.75 0-6.914 1.289-9.492 3.867-2.578 2.578-3.867 5.742-3.867 9.492 0 3.75 1.289 6.914 3.867 9.492 2.578 2.578 5.742 3.867 9.492 3.867zm5.906-20.109l.844.844-5.906 5.906 5.906 5.906-.844.844-5.906-5.906-5.906 5.906-.844-.844 5.906-5.906-5.906-5.906.844-.844 5.906 5.906 5.906-5.906z"/>
</svg>
