<svg xmlns="http://www.w3.org/2000/svg" xmlns:xlink="http://www.w3.org/1999/xlink" width="24" height="16" viewBox="0 0 24 16">
    <defs>
        <path id="a" d="M0 0h24v18H0z"/>
    </defs>
    <g fill="none" fill-rule="evenodd" transform="translate(0 -1)">
        <mask id="b" fill="#fff">
            <use xlink:href="#a"/>
        </mask>
        <path fill="#4A4A4A" d="M15.154 7.663c.081.46.122.894.122 1.3 0 1.49-.311 2.81-.934 3.961a6.759 6.759 0 0 1-2.641 2.702c-1.138.65-2.438.975-3.9.975a7.637 7.637 0 0 1-3.921-1.056A7.742 7.742 0 0 1 1.036 12.7 7.642 7.642 0 0 1 0 8.8c0-1.409.345-2.709 1.036-3.9A7.742 7.742 0 0 1 3.88 2.055 7.637 7.637 0 0 1 7.8 1c2.032 0 3.765.677 5.2 2.031l-2.112 2.032c-.812-.786-1.842-1.178-3.087-1.178-.867 0-1.673.216-2.418.65a4.765 4.765 0 0 0-1.767 1.787 4.91 4.91 0 0 0-.65 2.479c0 .893.217 1.72.65 2.478a4.765 4.765 0 0 0 1.767 1.787c.745.434 1.55.65 2.418.65.948 0 1.774-.203 2.478-.609a3.754 3.754 0 0 0 1.381-1.381c.298-.46.488-.908.569-1.341H7.801V7.663h7.353zm6.57.284H24v2.276h-2.275v2.275H19.45v-2.275h-2.235V7.947h2.235V5.672h2.275v2.275z" mask="url(#b)"/>
    </g>
</svg>
