<svg xmlns="http://www.w3.org/2000/svg" xmlns:xlink="http://www.w3.org/1999/xlink" width="18" height="18" viewBox="0 0 18 18">
    <defs>
        <path id="a" d="M0 0h24v18H0z"/>
    </defs>
    <g fill="none" fill-rule="evenodd" transform="translate(-3)">
        <mask id="b" fill="#fff">
            <use xlink:href="#a"/>
        </mask>
        <path fill="#107CC5" d="M6.857 18V6.429H3V18h3.857zM4.896 3.857c.566 0 1.035-.185 1.405-.556.37-.37.556-.817.556-1.34 0-.566-.174-1.035-.523-1.405C5.985.186 5.528 0 4.961 0c-.566 0-1.035.185-1.405.556C3.186.926 3 1.395 3 1.96c0 .523.174.97.523 1.34.349.37.806.556 1.373.556zM21 18v-6.612c0-1.631-.402-2.866-1.205-3.703-.804-.838-1.849-1.256-3.134-1.256-1.378 0-2.526.617-3.444 1.851V6.693H9.429V18h3.788v-6.414c0-.44.046-.75.138-.926.367-.881 1.01-1.322 1.928-1.322 1.286 0 1.929.815 1.929 2.446V18H21z" mask="url(#b)"/>
    </g>
</svg>
