<svg xmlns="http://www.w3.org/2000/svg" width="26" height="26" viewBox="0 0 26 26">
    <path fill="#FF1E3C" fill-rule="evenodd" d="M26 20.534c0 .332-.062.766-.185 1.302-.123.535-.252.957-.387 1.265-.259.615-1.01 1.268-2.253 1.957-1.157.628-2.302.942-3.435.942-.332 0-.655-.022-.97-.065a7.981 7.981 0 0 1-1.061-.23c-.394-.111-.687-.2-.877-.268-.191-.068-.533-.194-1.025-.379a39.346 39.346 0 0 0-.905-.332c-1.206-.431-2.284-.942-3.232-1.533-1.575-.972-3.203-2.299-4.884-3.98-1.68-1.68-3.007-3.308-3.98-4.883-.59-.948-1.101-2.026-1.532-3.232-.037-.11-.148-.412-.332-.905C.757 9.701.63 9.36.563 9.168c-.067-.19-.157-.483-.268-.877a7.981 7.981 0 0 1-.23-1.062A7.123 7.123 0 0 1 0 6.26c0-1.132.314-2.277.942-3.434C1.632 1.582 2.284.831 2.899.572c.308-.135.73-.264 1.265-.387C4.7.062 5.134 0 5.466 0c.172 0 .302.018.388.055.221.074.548.542.978 1.404.136.234.32.566.554.997.234.43.45.822.647 1.173.197.35.387.68.572.987.037.05.145.204.323.462.179.259.311.477.397.656.086.178.13.354.13.526 0 .246-.176.554-.527.923-.35.37-.732.708-1.145 1.016a11.12 11.12 0 0 0-1.145.979c-.35.344-.526.627-.526.849 0 .11.031.25.093.415.061.167.113.293.157.379.043.086.129.234.258.443.13.21.2.326.212.351.936 1.687 2.007 3.133 3.213 4.34 1.207 1.206 2.653 2.277 4.34 3.213.025.012.142.083.35.212.21.13.358.215.444.258.086.044.212.096.379.157.166.062.304.093.415.093.222 0 .505-.176.85-.526.344-.351.67-.733.978-1.145a9.001 9.001 0 0 1 1.016-1.145c.37-.351.677-.527.923-.527.172 0 .348.044.526.13.179.086.397.218.656.397.258.178.412.286.462.323.307.185.637.375.987.572.351.197.742.413 1.173.647.43.234.763.418.997.554.862.43 1.33.757 1.404.978.037.086.055.216.055.388z"/>
</svg>
