<svg xmlns="http://www.w3.org/2000/svg" width="23" height="18" viewBox="0 0 23 18">
    <path fill="#1EAEFF" fill-rule="evenodd" d="M22.5 2.156c-.572.875-1.335 1.656-2.288 2.344v.563c0 3.28-1.2 6.257-3.6 8.93C14.214 16.663 11.029 18 7.056 18 4.513 18 2.161 17.313 0 15.937c.508.063.874.094 1.096.094 2.13 0 4.036-.656 5.72-1.968a4.69 4.69 0 0 1-2.669-.915c-.794-.578-1.334-1.32-1.62-2.226.38.062.667.094.858.094.317 0 .73-.063 1.239-.188a4.674 4.674 0 0 1-2.646-1.57A4.277 4.277 0 0 1 .906 6.375v-.047c.699.375 1.398.563 2.097.563C1.637 6.016.953 4.75.953 3.094c0-.782.207-1.531.62-2.25C4.02 3.813 7.183 5.39 11.06 5.578c-.063-.219-.095-.562-.095-1.031 0-1.281.445-2.36 1.335-3.234C13.189.436 14.285 0 15.588 0c1.303 0 2.415.484 3.337 1.453.953-.156 1.938-.531 2.955-1.125-.318 1.094-1 1.938-2.05 2.531.986-.093 1.876-.328 2.67-.703z"/>
</svg>
