<svg xmlns="http://www.w3.org/2000/svg" width="14" height="14" viewBox="0 0 14 14">
    <path fill="#ff1e3c" fill-rule="evenodd" d="M5.309 9.957l1.933-1.969H0V6.512h7.277L5.31 4.543l1.054-1.055 3.762 3.762-3.762 3.762L5.31 9.957zM11.989.5c.398 0 .75.152 1.054.457.305.305.457.656.457 1.055v10.476c0 .399-.152.75-.457 1.055-.305.305-.656.457-1.055.457H1.512c-.399 0-.75-.152-1.055-.457C.152 13.238 0 12.887 0 12.488V9.5h1.512v2.988h10.476V2.012H1.512V5H0V2.012c0-.399.152-.75.457-1.055C.762.652 1.113.5 1.512.5h10.476z"/>
</svg>
