<svg xmlns="http://www.w3.org/2000/svg" width="13" height="13" viewBox="0 0 13 13">
    <g fill="#FFF" fill-rule="nonzero">
        <circle cx="9.759" cy="2.759" r="1"/>
        <path d="M6.253 3a3.253 3.253 0 1 0 0 6.506 3.253 3.253 0 0 0 0-6.506zm0 5.366a2.113 2.113 0 1 1 0-4.226 2.113 2.113 0 0 1 0 4.226z"/>
        <path d="M12.334 2.186A3.24 3.24 0 0 0 10.483.334 4.65 4.65 0 0 0 8.944.04C8.267.009 8.053 0 6.334 0c-1.718 0-1.937 0-2.61.039a4.65 4.65 0 0 0-1.538.295A3.24 3.24 0 0 0 .334 2.186 4.65 4.65 0 0 0 .04 3.724C.009 4.401 0 4.616 0 6.334c0 1.719 0 1.937.039 2.61.01.526.11 1.046.295 1.539a3.24 3.24 0 0 0 1.852 1.851 4.65 4.65 0 0 0 1.538.317c.677.03.892.039 2.61.039 1.719 0 1.937 0 2.61-.039a4.65 4.65 0 0 0 1.539-.295 3.24 3.24 0 0 0 1.851-1.852 4.65 4.65 0 0 0 .296-1.538c.03-.677.039-.892.039-2.61 0-1.719 0-1.937-.039-2.61a4.65 4.65 0 0 0-.296-1.56zm-.857 6.707a3.506 3.506 0 0 1-.218 1.187 2.1 2.1 0 0 1-1.205 1.204c-.376.14-.773.214-1.174.219-.669.03-.857.038-2.571.038-1.715 0-1.89 0-2.572-.038a3.506 3.506 0 0 1-1.174-.219 2.096 2.096 0 0 1-1.209-1.204 3.506 3.506 0 0 1-.218-1.174c-.03-.669-.039-.857-.039-2.572 0-1.714 0-1.89.039-2.571.003-.406.077-.807.218-1.187A2.096 2.096 0 0 1 2.563 1.37c.376-.14.773-.213 1.174-.218.669-.03.857-.039 2.572-.039 1.714 0 1.89 0 2.571.039.401.005.798.079 1.174.218a2.1 2.1 0 0 1 1.205 1.205c.14.376.213.773.218 1.174.03.669.039.857.039 2.571 0 1.715 0 1.899-.03 2.572h-.009z"/>
    </g>
</svg>
