<svg xmlns="http://www.w3.org/2000/svg" width="15" height="15" viewBox="0 0 15 15">
    <path fill="#1D2C3A" fill-rule="evenodd" d="M10.938 9.14l-.157.274L15 13.672 13.672 15l-4.219-4.258-.273.195c-1.042.652-2.123.977-3.242.977-1.641 0-3.04-.586-4.2-1.758C.58 8.984 0 7.578 0 5.937c0-1.64.58-3.04 1.738-4.199C2.898.58 4.297 0 5.938 0c1.64 0 3.04.58 4.199 1.738 1.159 1.16 1.738 2.559 1.738 4.2a5.888 5.888 0 0 1-.938 3.203zm-1.68-6.523C8.346 1.706 7.24 1.25 5.938 1.25c-1.303 0-2.41.456-3.32 1.367-.912.912-1.368 2.018-1.368 3.32 0 1.303.456 2.41 1.367 3.32.912.912 2.018 1.368 3.32 1.368 1.303 0 2.41-.456 3.32-1.367.938-.938 1.407-2.044 1.407-3.32 0-1.277-.469-2.383-1.406-3.32z"/>
</svg>
