<svg xmlns="http://www.w3.org/2000/svg" width="148" height="16" viewBox="0 0 148 16">
    <g fill="none" fill-rule="evenodd">
        <path fill="#FF1E3C" d="M6.147 2.424H2.746v5.168h3.401c1.636 0 2.748-.938 2.748-2.574 0-1.635-1.112-2.594-2.748-2.594zm.131 7.304H2.746v6.105H.39V.31h5.887c3.03 0 4.971 2.006 4.971 4.71 0 2.703-1.94 4.709-4.97 4.709zM13.123 15.833V.31h9.92v2.115h-7.565V6.96h6.454v2.093h-6.454v4.666h7.566v2.114h-9.92M31.154 2.424h-3.49v4.863h3.49c1.57 0 2.638-.895 2.638-2.42 0-1.527-1.068-2.443-2.638-2.443zm2.725 13.41l-3.27-6.541h-2.944v6.54H25.31V.31h6.018c2.944 0 4.818 1.897 4.818 4.535 0 2.224-1.351 3.641-3.096 4.12l3.576 6.87H33.88zM40.964 2.424v4.731h6.453V9.27h-6.453v6.563h-2.355V.31h9.92v2.115h-7.565M50.403 15.833V.31h9.92v2.115h-7.565V6.96h6.454v2.093h-6.454v4.666h7.566v2.114h-9.92M67.605 15.964c-1.613 0-3.009-.589-4.077-1.657-1.526-1.526-1.505-3.249-1.505-6.236 0-2.987-.021-4.71 1.505-6.236C64.596.768 65.992.178 67.605.178c2.856 0 4.993 1.68 5.538 4.776h-2.398c-.37-1.57-1.417-2.661-3.14-2.661-.916 0-1.744.35-2.29.937-.762.83-.937 1.724-.937 4.841 0 3.118.175 4.012.938 4.84.545.59 1.373.938 2.29.938 1.722 0 2.79-1.09 3.16-2.66h2.377c-.523 3.096-2.725 4.775-5.538 4.775M80.14 2.424v13.41h-2.354V2.423h-4.274V.31h10.902v2.115H80.14"/>
        <path fill="#23C8FF" d="M90.558 15.964c-2.333 0-4.012-.545-5.494-2.05l1.57-1.548c1.134 1.134 2.376 1.483 3.968 1.483 2.028 0 3.205-.872 3.205-2.376 0-.676-.196-1.243-.61-1.614-.393-.37-.786-.523-1.701-.654l-1.832-.262c-1.264-.174-2.267-.61-2.943-1.242-.763-.72-1.134-1.701-1.134-2.965 0-2.704 1.963-4.558 5.19-4.558 2.049 0 3.488.524 4.818 1.767l-1.504 1.482c-.96-.916-2.072-1.2-3.38-1.2-1.832 0-2.835 1.048-2.835 2.421 0 .567.175 1.069.59 1.439.392.35 1.024.61 1.744.72l1.765.261c1.44.219 2.246.567 2.9 1.156.85.74 1.265 1.854 1.265 3.183 0 2.857-2.333 4.557-5.582 4.557M98.319 15.833V.31h9.92v2.115h-7.565V6.96h6.454v2.093h-6.454v4.666h7.566v2.114h-9.921M120.034 15.833L112.861 4.91v10.923h-2.355V.31h2.159l7.173 10.902V.309h2.355v15.524h-2.159M129.408 15.964c-2.333 0-4.012-.545-5.495-2.05l1.57-1.548c1.134 1.134 2.377 1.483 3.968 1.483 2.028 0 3.205-.872 3.205-2.376 0-.676-.196-1.243-.61-1.614-.392-.37-.785-.523-1.7-.654l-1.832-.262c-1.264-.174-2.267-.61-2.943-1.242-.764-.72-1.134-1.701-1.134-2.965 0-2.704 1.962-4.558 5.189-4.558 2.05 0 3.488.524 4.819 1.767l-1.505 1.482c-.96-.916-2.071-1.2-3.38-1.2-1.831 0-2.834 1.048-2.834 2.421 0 .567.175 1.069.589 1.439.392.35 1.025.61 1.744.72l1.766.261c1.44.219 2.246.567 2.9 1.156.85.74 1.265 1.854 1.265 3.183 0 2.857-2.334 4.557-5.582 4.557M137.19 15.833V.31h9.92v2.115h-7.565V6.96h6.454v2.093h-6.454v4.666h7.566v2.114h-9.92"/>
    </g>
</svg>
