<?xml version="1.0" encoding="UTF-8" standalone="no"?>
<svg width="18px" height="18px" viewBox="0 0 18 18" version="1.1" xmlns="http://www.w3.org/2000/svg" xmlns:xlink="http://www.w3.org/1999/xlink">
    <!-- Generator: Sketch 50.2 (55047) - http://www.bohemiancoding.com/sketch -->
    <title></title>
    <desc>Created with Sketch.</desc>
    <defs></defs>
    <g id="SO-Video---Erin" stroke="none" stroke-width="1" fill="none" fill-rule="evenodd">
        <g id="SO-Video-1440-Playlist" transform="translate(-359.000000, -924.000000)" fill="#4A4A4A">
            <path d="M376.142857,932.857143 C376.142857,934.41221 375.759676,935.846348 374.993304,937.159598 C374.226931,938.472849 373.187135,939.512645 371.873884,940.279018 C370.560633,941.045391 369.126496,941.428571 367.571429,941.428571 C366.745532,941.428571 365.934528,941.309525 365.138393,941.071429 C365.577383,940.379461 365.867559,939.769348 366.008929,939.241071 C366.075893,938.988094 366.276784,938.203132 366.611607,936.886161 C366.760417,937.176341 367.031992,937.427454 367.426339,937.639509 C367.820686,937.851564 368.244789,937.957589 368.698661,937.957589 C369.598963,937.957589 370.402526,937.702756 371.109375,937.19308 C371.816224,936.683405 372.363093,935.982147 372.75,935.089286 C373.136907,934.196424 373.330357,933.19197 373.330357,932.075893 C373.330357,931.227674 373.109005,930.431551 372.666295,929.6875 C372.223584,928.943449 371.581849,928.337056 370.741071,927.868304 C369.900293,927.399551 368.951642,927.165179 367.895089,927.165179 C367.113835,927.165179 366.384676,927.273064 365.707589,927.488839 C365.030503,927.704614 364.455732,927.99107 363.983259,928.348214 C363.510786,928.705359 363.105284,929.116441 362.766741,929.581473 C362.428198,930.046505 362.178944,930.528271 362.018973,931.026786 C361.859002,931.5253 361.779018,932.023807 361.779018,932.522321 C361.779018,933.296135 361.927826,933.976932 362.225446,934.564732 C362.523067,935.152533 362.95833,935.565475 363.53125,935.803571 C363.754465,935.892858 363.895833,935.818454 363.955357,935.580357 C363.970238,935.528274 364,935.412947 364.044643,935.234375 C364.089286,935.055803 364.119048,934.944197 364.133929,934.899554 C364.178572,934.728422 364.137649,934.568453 364.011161,934.419643 C363.631695,933.965772 363.441964,933.404021 363.441964,932.734375 C363.441964,931.610857 363.830725,930.645465 364.608259,929.83817 C365.385793,929.030874 366.403268,928.627232 367.660714,928.627232 C368.784232,928.627232 369.660339,928.932289 370.289062,929.542411 C370.917786,930.152533 371.232143,930.944936 371.232143,931.919643 C371.232143,933.18453 370.977309,934.259668 370.467634,935.145089 C369.957959,936.03051 369.305064,936.473214 368.508929,936.473214 C368.055057,936.473214 367.690478,936.311386 367.415179,935.987723 C367.13988,935.664061 367.054315,935.2753 367.158482,934.821429 C367.218006,934.561011 367.316592,934.213172 367.454241,933.777902 C367.591891,933.342632 367.703497,932.959451 367.789062,932.628348 C367.874628,932.297245 367.917411,932.01637 367.917411,931.785714 C367.917411,931.413689 367.816965,931.104912 367.616071,930.859375 C367.415178,930.613838 367.128722,930.491071 366.756696,930.491071 C366.295385,930.491071 365.904764,930.703123 365.584821,931.127232 C365.264879,931.551341 365.104911,932.07961 365.104911,932.712054 C365.104911,933.255211 365.197916,933.709076 365.383929,934.073661 L364.279018,938.738839 C364.152529,939.259675 364.104167,939.918151 364.133929,940.714286 C362.601183,940.037199 361.362356,938.991823 360.417411,937.578125 C359.472466,936.164427 359,934.590782 359,932.857143 C359,931.302076 359.383181,929.867938 360.149554,928.554688 C360.915926,927.241437 361.955723,926.201641 363.268973,925.435268 C364.582224,924.668895 366.016361,924.285714 367.571429,924.285714 C369.126496,924.285714 370.560633,924.668895 371.873884,925.435268 C373.187135,926.201641 374.226931,927.241437 374.993304,928.554688 C375.759676,929.867938 376.142857,931.302076 376.142857,932.857143 Z" id=""></path>
        </g>
    </g>
</svg>