<svg xmlns="http://www.w3.org/2000/svg" width="59" height="40" viewBox="0 0 59 40">
    <g fill="none" fill-rule="evenodd">
        <path fill="#FF3250" d="M14.39 5.614H5.888v12.92h8.504c4.088 0 6.868-2.344 6.868-6.435 0-4.087-2.78-6.485-6.868-6.485zm.328 18.26h-8.83v15.263H0V.327h14.718c7.576 0 12.428 5.016 12.428 11.772 0 6.76-4.852 11.775-12.428 11.775z"/>
        <path fill="#46D2FF" d="M44.736 39.465c-5.832 0-10.03-1.362-13.736-5.126l3.924-3.87c2.836 2.836 5.943 3.706 9.921 3.706 5.07 0 8.012-2.18 8.012-5.94 0-1.69-.49-3.106-1.525-4.033-.981-.927-1.963-1.309-4.252-1.637l-4.578-.653c-3.163-.435-5.67-1.526-7.358-3.107-1.91-1.798-2.836-4.251-2.836-7.412C32.308 4.633 37.214 0 45.28 0c5.124 0 8.721 1.309 12.047 4.415l-3.76 3.707c-2.4-2.29-5.18-2.999-8.45-2.999-4.58 0-7.087 2.618-7.087 6.051 0 1.418.437 2.672 1.473 3.597.981.873 2.562 1.526 4.36 1.8l4.415.654c3.598.545 5.614 1.416 7.25 2.889 2.125 1.852 3.161 4.634 3.161 7.958 0 7.141-5.833 11.393-13.954 11.393"/>
    </g>
</svg>
