<svg xmlns="http://www.w3.org/2000/svg" width="36" height="24" viewBox="0 0 36 24">
    <g fill="none" fill-rule="evenodd">
        <path fill="#FF3250" d="M8.634 3.369H3.532v7.751h5.102c2.453 0 4.122-1.406 4.122-3.86 0-2.453-1.669-3.891-4.122-3.891zm.197 10.955H3.532v9.158H0V.196h8.83c4.547 0 7.457 3.01 7.457 7.064 0 4.056-2.91 7.064-7.456 7.064z"/>
        <path fill="#46D2FF" d="M26.842 23.679c-3.5 0-6.018-.817-8.242-3.075l2.354-2.322c1.702 1.7 3.566 2.223 5.953 2.223 3.042 0 4.807-1.307 4.807-3.563 0-1.015-.294-1.864-.915-2.42-.589-.557-1.177-.786-2.551-.983l-2.747-.392c-1.897-.26-3.401-.916-4.415-1.864-1.145-1.079-1.701-2.55-1.701-4.447C19.385 2.78 22.329 0 27.169 0c3.074 0 5.232.785 7.228 2.65L32.14 4.872c-1.44-1.374-3.107-1.8-5.07-1.8-2.747 0-4.252 1.571-4.252 3.632 0 .85.263 1.603.884 2.158.59.523 1.537.915 2.617 1.08l2.648.392c2.16.327 3.369.85 4.35 1.733 1.276 1.112 1.897 2.78 1.897 4.775 0 4.285-3.5 6.836-8.372 6.836"/>
    </g>
</svg>
