<svg xmlns="http://www.w3.org/2000/svg" width="24" height="24" viewBox="0 0 24 24">
    <path fill="#000" fill-rule="evenodd" d="M17 10.5c0-1.794-.626-3.318-1.879-4.57C13.835 4.643 12.294 4 10.5 4c-1.794 0-3.318.643-4.57 1.93C4.643 7.182 4 8.706 4 10.5c0 1.794.643 3.335 1.93 4.621C7.182 16.374 8.706 17 10.5 17c1.794 0 3.335-.626 4.621-1.879C16.374 13.835 17 12.294 17 10.5zm7 11.634c0 .505-.168.942-.505 1.311-.37.37-.809.555-1.314.555-.539 0-.977-.185-1.314-.555l-4.951-4.94c-1.718 1.176-3.638 1.764-5.76 1.764-1.381 0-2.695-.252-3.941-.756a10.304 10.304 0 0 1-3.234-2.168c-.91-.908-1.634-2-2.173-3.278A9.786 9.786 0 0 1 0 10.134c0-1.378.27-2.689.808-3.932a10.28 10.28 0 0 1 2.173-3.227c.91-.908 1.987-1.63 3.234-2.168A9.842 9.842 0 0 1 10.155 0c1.382 0 2.696.269 3.942.807 1.28.538 2.375 1.26 3.284 2.168a9.614 9.614 0 0 1 2.122 3.227 9.786 9.786 0 0 1 .809 3.932c0 2.118-.59 4.034-1.769 5.748l4.952 4.942c.337.37.505.806.505 1.31z"/>
</svg>
