<?xml version="1.0" encoding="UTF-8"?>
<svg width="200px" height="25px" viewBox="0 0 200 25" version="1.1" xmlns="http://www.w3.org/2000/svg" xmlns:xlink="http://www.w3.org/1999/xlink">
    <title>Brightspot grey logo</title>
    <defs>
        <linearGradient x1="24.3528212%" y1="17.8420804%" x2="100%" y2="99.9922305%" id="linearGradient-1">
            <stop stop-color="#FF203C" offset="0%"></stop>
            <stop stop-color="#DB22B0" offset="50.999432%"></stop>
            <stop stop-color="#086CEF" offset="100%"></stop>
        </linearGradient>
        <path d="M162.764037,0.372325215 C156.046189,0.372325215 150.59983,5.81805404 150.59983,12.5346419 C150.59983,19.25249 156.046189,24.6982188 162.764037,24.6982188 C169.481885,24.6982188 174.927614,19.25249 174.927614,12.5346419 C174.927614,5.81805404 169.481885,0.372325215 162.764037,0.372325215 Z M162.764037,3.83773173 C167.56079,3.83773173 171.461578,7.7391494 171.461578,12.5346419 C171.461578,17.3313946 167.56079,21.2328123 162.764037,21.2328123 C157.966655,21.2328123 154.065867,17.3313946 154.065867,12.5346419 C154.065867,7.7391494 157.966655,3.83773173 162.764037,3.83773173 L162.764037,3.83773173 Z" id="path-2"></path>
    </defs>
    <g id="Foundation" stroke="none" stroke-width="1" fill="none" fill-rule="evenodd">
        <g id="Dropdown-Menus-REVISED" transform="translate(-150.000000, -168.000000)">
            <g id="header-1440-copy-3" transform="translate(100.000000, 131.000000)">
                <g id="Brightspot-grey-logo" transform="translate(50.000000, 37.000000)">
                    <path d="M9.58991882,14.0039743 L3.78126742,14.0039743 L3.78126742,21.4167939 L9.58991882,21.4167939 C12.1517993,21.4167939 13.5871077,19.8460196 13.5871077,17.6930571 C13.5871077,15.5407246 12.1517993,14.0039743 9.58991882,14.0039743 Z M9.24841876,3.71990791 L3.78126742,3.71990791 L3.78126742,10.6891555 L9.24841876,10.6891555 C11.6055253,10.6891555 13.2115837,9.45925118 13.2115837,7.20484672 C13.2115837,4.94981219 11.6055253,3.71990791 9.24841876,3.71990791 Z M9.93204895,24.7316127 L0.0915545862,24.7316127 L0.0915545862,0.405089059 L9.55526475,0.405089059 C14.0653338,0.405089059 16.9012965,2.96759966 16.9012965,7.06749061 C16.9012965,9.69804919 15.2618442,11.5775597 13.6211317,12.2265358 C15.5006422,12.978214 17.2774506,14.7903066 17.2774506,17.8644372 C17.2774506,22.3392221 14.2367139,24.7316127 9.93204895,24.7316127 L9.93204895,24.7316127 Z" id="Fill-1" fill="#958F8F"></path>
                    <path d="M30.7402399,3.71990791 L25.2730886,3.71990791 L25.2730886,11.3393917 L30.7402399,11.3393917 C33.2000485,11.3393917 34.8741549,9.93747728 34.8741549,7.54571671 C34.8741549,5.15458621 33.2000485,3.71990791 30.7402399,3.71990791 Z M35.0102508,24.7316127 L29.8858597,14.4815703 L25.2730886,14.4815703 L25.2730886,24.7316127 L21.5833757,24.7316127 L21.5833757,0.405089059 L31.013692,0.405089059 C35.625833,0.405089059 38.5638677,3.37777778 38.5638677,7.51232279 C38.5638677,10.9972616 36.4461893,13.217012 33.7129286,13.9693202 L39.3155459,24.7316127 L35.0102508,24.7316127 L35.0102508,24.7316127 Z" id="Fill-2" fill="#958F8F"></path>
                    <polygon id="Fill-3" fill="#958F8F" points="42.8023749 24.7316127 46.4920877 24.7316127 46.4920877 0.405089059 42.8023749 0.405089059"></polygon>
                    <path d="M66.2404944,22.1684721 C64.3956379,24.1166606 62.1059494,24.9363868 59.5428087,24.9363868 C57.0155822,24.9363868 54.8279656,24.0139586 53.1544893,22.3392221 C50.7620986,19.9480916 50.7960966,17.248855 50.7960966,12.5680359 C50.7960966,7.88721677 50.7620986,5.1886102 53.1544893,2.7974797 C54.8279656,1.12274324 56.9475342,0.200945111 59.5428087,0.200945111 C64.7024839,0.200945111 67.7091967,3.5825518 68.3928269,7.75175088 L64.66846,7.75175088 C64.0541379,5.08653823 62.2773295,3.51513389 59.5428087,3.51513389 C58.1093905,3.51513389 56.8101781,4.09543196 55.956428,5.01786017 C54.7605477,6.31644251 54.4864655,7.68307282 54.4864655,12.5680359 C54.4864655,17.4542591 54.7605477,18.8549134 55.956428,20.1528656 C56.8101781,21.0752938 58.1093905,21.6234581 59.5428087,21.6234581 C61.1488671,21.6234581 62.5501515,21.0078759 63.5072337,19.9146977 C64.3956379,18.8883073 64.7365079,17.6602932 64.7365079,16.0869987 L64.7365079,14.7216285 L59.5428087,14.7216285 L59.5428087,11.5775597 L68.4268508,11.5775597 L68.4268508,15.3006664 C68.4268508,18.4453653 67.8465528,20.4603417 66.2404944,22.1684721" id="Fill-5" fill="#958F8F"></path>
                    <polyline id="Fill-7" fill="#958F8F" points="86.2629832 24.7316127 86.2629832 14.1060463 76.3878347 14.1060463 76.3878347 24.7316127 72.6981219 24.7316127 72.6981219 0.405089059 76.3878347 0.405089059 76.3878347 10.7918575 86.2629832 10.7918575 86.2629832 0.405089059 89.9520659 0.405089059 89.9520659 24.7316127 86.2629832 24.7316127"></polyline>
                    <polyline id="Fill-8" fill="#958F8F" points="103.346807 3.71990791 103.346807 24.7316127 99.6564643 24.7316127 99.6564643 3.71990791 92.9606688 3.71990791 92.9606688 0.405089059 110.043863 0.405089059 110.043863 3.71990791 103.346807 3.71990791"></polyline>
                    <path d="M119.721168,24.9363868 C116.064219,24.9363868 113.43366,24.0832667 111.111208,21.7255301 L113.570387,19.2991155 C115.347195,21.0752938 117.294753,21.6234581 119.789216,21.6234581 C122.967309,21.6234581 124.811535,20.2561977 124.811535,17.8984612 C124.811535,16.8393069 124.504059,15.9521628 123.855713,15.3699746 C123.240131,14.7903066 122.625179,14.5502484 121.18924,14.3461044 L118.319884,13.9346662 C116.338301,13.6618442 114.766267,12.978214 113.707113,11.9877378 C112.511862,10.8599055 111.930934,9.32315522 111.930934,7.34094269 C111.930934,3.10495577 115.005695,0.200945111 120.062038,0.200945111 C123.274155,0.200945111 125.529189,1.02067127 127.614104,2.96759966 L125.256367,5.29068218 C123.752381,3.85726403 122.009597,3.41180177 119.959966,3.41180177 C117.089979,3.41180177 115.517315,5.05251424 115.517315,7.20484672 C115.517315,8.09262087 115.790767,8.87895311 116.441633,9.45925118 C117.055955,10.0067854 118.047692,10.4157034 119.173634,10.5870835 L121.942179,10.9972616 C124.197213,11.3393917 125.460511,11.8850357 126.485642,12.8068339 C127.818248,13.9693202 128.467854,15.7121047 128.467854,17.795129 C128.467854,22.2718042 124.811535,24.9363868 119.721168,24.9363868" id="Fill-10" fill="#958F8F"></path>
                    <path d="M140.933866,3.71990791 L135.604071,3.71990791 L135.604071,11.8176178 L140.933866,11.8176178 C143.496377,11.8176178 145.238531,10.3476554 145.238531,7.7851448 C145.238531,5.22326427 143.496377,3.71990791 140.933866,3.71990791 Z M141.13801,15.1652005 L135.604071,15.1652005 L135.604071,24.7316127 L131.913728,24.7316127 L131.913728,0.405089059 L141.13801,0.405089059 C145.886877,0.405089059 148.930134,3.54915788 148.930134,7.7851448 C148.930134,12.0217618 145.886877,15.1652005 141.13801,15.1652005 L141.13801,15.1652005 Z" id="Fill-12" fill="#958F8F"></path>
                    <g id="Fill-14">
                        <use fill="url(#linearGradient-1)" xlink:href="#path-2"></use>
                        <use fill="#FE1F3C" xlink:href="#path-2"></use>
                    </g>
                    <polyline id="Fill-13" fill="#958F8F" points="184.942106 3.82372471 184.942106 24.8354295 181.252393 24.8354295 181.252393 3.82372471 174.554707 3.82372471 174.554707 0.508905852 191.639162 0.508905852 191.639162 3.82372471 184.942106 3.82372471"></polyline>
                    <path d="M196.803435,0.902512723 C196.111638,0.902512723 195.520571,1.14901153 195.030216,1.64201654 C194.542512,2.13237098 194.298664,2.72476328 194.298664,3.4192112 C194.298664,4.11896024 194.541187,4.71532832 195.02624,5.20833333 C195.513944,5.70133834 196.106337,5.94783715 196.803435,5.94783715 C197.500534,5.94783715 198.092926,5.70133834 198.58063,5.20833333 C199.068334,4.71532832 199.312182,4.11896024 199.312182,3.4192112 C199.312182,2.72476328 199.068334,2.13237098 198.58063,1.64201654 C198.090275,1.14901153 197.497883,0.902512723 196.803435,0.902512723 Z M199.725668,3.4192112 C199.725668,4.22763339 199.440737,4.9180951 198.870865,5.49061705 C198.300994,6.06313899 197.611857,6.34939567 196.803435,6.34939567 C195.995013,6.34939567 195.307202,6.06313899 194.739981,5.49061705 C194.175411,4.92074567 193.89313,4.23028395 193.89313,3.4192112 C193.89313,2.61609013 194.178061,1.92960421 194.747933,1.35973282 C195.315153,0.792512007 196.000314,0.508905852 196.803435,0.508905852 C197.611857,0.508905852 198.300994,0.792512007 198.870865,1.35973282 C199.440737,1.92695364 199.725668,2.61343957 199.725668,3.4192112 Z M197.566794,2.78307888 C197.566794,2.5498292 197.495892,2.39344823 197.354087,2.3139313 C197.212282,2.23441436 196.984999,2.19465649 196.672233,2.19465649 L196.191158,2.19465649 L196.191158,3.35559796 L196.700064,3.35559796 C196.938614,3.35559796 197.117525,3.33174324 197.2368,3.28403308 C197.456797,3.19656445 197.566794,3.02958139 197.566794,2.78307888 Z M196.747774,1.80900127 C197.145358,1.80900127 197.436916,1.84743388 197.622455,1.92430025 C197.953776,2.06212961 198.119434,2.33248314 198.119434,2.73536896 C198.119434,3.02162993 198.014738,3.23234665 197.805344,3.36752545 C197.69402,3.43909069 197.538964,3.49077592 197.340172,3.5225827 C197.591975,3.56234117 197.776187,3.6670369 197.892812,3.83667303 C198.009437,4.00630916 198.067748,4.17196696 198.067748,4.3336514 L198.067748,4.56822519 C198.067748,4.642441 198.070399,4.72195674 198.0757,4.80677481 C198.081001,4.89159288 198.090278,4.9472539 198.103531,4.97375954 L198.12341,5.01351781 L197.594625,5.01351781 L197.586673,4.9817112 C197.584022,4.97110894 197.581372,4.95918158 197.578721,4.94592875 L197.566794,4.84255725 L197.566794,4.58810433 C197.566794,4.21702529 197.466074,3.97185174 197.264631,3.85257634 C197.145356,3.78366166 196.935964,3.74920483 196.63645,3.74920483 L196.191158,3.74920483 L196.191158,5.01351781 L195.62659,5.01351781 L195.62659,1.80900127 L196.747774,1.80900127 Z" id="®" fill="#958F8F"></path>
                </g>
            </g>
        </g>
    </g>
</svg>