<svg xmlns="http://www.w3.org/2000/svg" width="110" height="30" viewBox="0 0 110 30">
    <g fill="#BFB5AE" fill-rule="evenodd">
        <path d="M13.305 16.298H3.045v9.952H0V3.75h14.882v2.395H3.044v7.758h10.261v2.395zm9.648.201v9.751h-3.044V3.765h8.143c2.463 0 4.343.546 5.64 1.639 1.299 1.092 1.948 2.678 1.948 4.76 0 1.153-.301 2.157-.904 3.013-.603.855-1.48 1.535-2.635 2.04 1.237.401 2.125 1.053 2.666 1.954.54.902.811 2.017.811 3.346v2.117c0 .7.078 1.329.232 1.885.155.557.422 1.01.804 1.36v.371h-3.137c-.402-.35-.66-.865-.773-1.545-.113-.68-.17-1.38-.17-2.102v-2.055c0-1.216-.355-2.195-1.066-2.936-.711-.742-1.664-1.113-2.86-1.113h-5.655zm0-2.395h4.79c1.72 0 2.96-.327 3.717-.982.757-.654 1.136-1.65 1.136-2.99 0-1.267-.369-2.248-1.105-2.944-.737-.695-1.883-1.043-3.439-1.043h-5.1v7.959zM85.585 20.422c0-1.001-.376-1.84-1.127-2.516-.75-.676-2.083-1.244-3.995-1.704-2.313-.551-4.118-1.362-5.415-2.434-1.297-1.071-1.945-2.418-1.945-4.04 0-1.702.698-3.124 2.095-4.266 1.397-1.141 3.207-1.712 5.43-1.712 2.393 0 4.298.656 5.715 1.968 1.417 1.311 2.1 2.833 2.05 4.566l-.03.09H85.54c0-1.282-.423-2.318-1.27-3.11-.846-.79-2.06-1.186-3.642-1.186-1.472 0-2.601.333-3.387.999-.786.666-1.18 1.534-1.18 2.606 0 .951.426 1.745 1.278 2.38.85.636 2.233 1.195 4.145 1.675 2.303.571 4.056 1.412 5.257 2.524 1.202 1.111 1.803 2.488 1.803 4.13 0 1.763-.721 3.18-2.163 4.25-1.442 1.072-3.325 1.608-5.648 1.608-2.183 0-4.113-.59-5.79-1.772-1.677-1.182-2.49-2.764-2.44-4.747l.03-.09h2.823c0 1.402.516 2.468 1.547 3.2 1.031.73 2.308 1.096 3.83 1.096 1.492 0 2.674-.316 3.545-.946.871-.631 1.307-1.487 1.307-2.569zm23.51-14.028h-7.029v19.54h-2.959V6.395h-7.014V4.065h17.003v2.329zM60.8 6.753l-.702-2.905a.833.833 0 1 1 1.62-.392l.463 1.914 1.052-1.055a.833.833 0 0 1 1.18 1.177l-1.061 1.064 1.924.48a.833.833 0 0 1-.403 1.617L61.98 7.93l-3.42 3.429a.833.833 0 0 1-1.18-1.177l3.421-3.43zm-13.638 15.99l.724 2.898a.833.833 0 0 1-1.617.404l-.481-1.927-1.063 1.062a.833.833 0 0 1-1.179-1.178l1.054-1.054-1.912-.463a.833.833 0 1 1 .392-1.62l2.9.702 3.438-3.437a.833.833 0 0 1 1.179 1.179l-3.435 3.434zm14.83-1.177l2.901-.701a.833.833 0 0 1 .392 1.62l-1.913.462L64.425 24a.833.833 0 0 1-1.178 1.179l-1.062-1.062-.482 1.928a.833.833 0 1 1-1.617-.404l.724-2.899-3.423-3.423a.833.833 0 0 1 1.178-1.179l3.426 3.426zM45.997 7.93l-2.9.724a.833.833 0 0 1-.403-1.617l1.928-.482-1.062-1.063a.833.833 0 1 1 1.178-1.178l1.054 1.054.462-1.912a.833.833 0 0 1 1.62.392l-.701 2.9 3.437 3.438a.833.833 0 0 1-1.179 1.178L45.998 7.93zm18.463 5.986l1.559-2.551a.833.833 0 1 1 1.422.868l-1.026 1.68h1.489a.833.833 0 1 1 .002 1.666l-1.502.002 1.022 1.7a.833.833 0 1 1-1.429.859l-1.537-2.557-4.489.005a.833.833 0 1 1-.002-1.667l4.491-.005zm-20.948 1.663l-1.54 2.56a.833.833 0 1 1-1.428-.858l1.023-1.702h-1.503a.833.833 0 0 1 0-1.667h1.49l-1.026-1.679a.833.833 0 1 1 1.423-.868l1.556 2.547h4.512a.833.833 0 1 1 0 1.667h-4.507zm11.317 9.654l2.547 1.556a.833.833 0 1 1-.868 1.422l-1.68-1.025v1.49a.833.833 0 0 1-1.666 0V27.17l-1.704 1.024a.833.833 0 1 1-.858-1.429l2.562-1.539V20.72a.833.833 0 1 1 1.667 0v4.512zM53.163 4.28L50.6 2.74a.833.833 0 0 1 .858-1.428l1.704 1.023V.833a.833.833 0 1 1 1.667 0v1.49l1.679-1.026a.833.833 0 1 1 .868 1.423L54.83 4.276v4.512a.833.833 0 0 1-1.667 0V4.28z"/>
        <path d="M64.529 18.142a.833.833 0 0 1-.59 1.422h-5.132v5.133a.833.833 0 0 1-1.423.59l-3.388-3.389-3.388 3.388a.833.833 0 0 1-1.422-.589v-5.133h-5.133a.833.833 0 0 1-.59-1.422l3.389-3.388-3.388-3.388a.833.833 0 0 1 .589-1.423h5.133V4.811a.833.833 0 0 1 1.422-.59l3.388 3.388 3.388-3.388a.833.833 0 0 1 1.423.59v5.132h5.132a.833.833 0 0 1 .59 1.423l-3.388 3.388 3.388 3.388zm-5.156-2.799a.833.833 0 0 1 0-1.178l2.555-2.555h-3.955a.833.833 0 0 1-.833-.833V6.822l-2.555 2.555a.833.833 0 0 1-1.178 0l-2.555-2.555v3.955c0 .46-.373.833-.833.833h-3.954l2.555 2.555a.833.833 0 0 1 0 1.178l-2.555 2.555h3.954c.46 0 .833.373.833.833v3.954l2.555-2.555a.833.833 0 0 1 1.178 0l2.555 2.555v-3.954c0-.46.373-.833.833-.833h3.955l-2.555-2.555z"/>
    </g>
</svg>
