<svg xmlns="http://www.w3.org/2000/svg" width="305" height="61" viewBox="0 0 305 61">
    <g fill="#000" fill-rule="evenodd">
        <path d="M1.93 13L0 18.546l3.264-2.31L7.464 25 16 16.438 7.465 13zM25.521 13.012L8 30.918 9.703 58l15.56-23.7 25.718-5.74 2.717-4.332-25.017 5.635 1.126-1.364 25.035-6.221 3.29-5.198-25.912 6.178 1.566-1.69 25.777-6.51 2.86-4.838-26.031 6.57 1.134-1.755 26.47-7.053L67 3z"/>
        <path fill-rule="nonzero" d="M108.887 31.078H88.994V51h-3.603V8.344h26.425v3.076H88.994v16.582h19.893v3.076zm33.281 7.969h-19.365L118.408 51h-3.78l16.143-42.656h3.428L150.342 51h-3.75l-4.424-11.953zm-18.252-3.076h17.11l-8.555-23.233-8.555 23.233zm36.328 11.982h21.065V51H156.61V8.344h3.633v39.61zM218.428 37.7c-.489 4.492-2.095 7.93-4.82 10.313-2.724 2.383-6.352 3.574-10.883 3.574-3.164 0-5.962-.791-8.394-2.373-2.432-1.582-4.311-3.823-5.64-6.724-1.328-2.9-2.002-6.216-2.021-9.946v-5.537c0-3.79.664-7.149 1.992-10.078 1.328-2.93 3.237-5.19 5.728-6.782 2.49-1.592 5.356-2.388 8.598-2.388 4.57 0 8.179 1.235 10.825 3.706 2.647 2.47 4.185 5.884 4.615 10.24h-3.633c-.899-7.247-4.834-10.87-11.807-10.87-3.867 0-6.948 1.445-9.243 4.336-2.295 2.89-3.442 6.885-3.442 11.982v5.215c0 4.922 1.118 8.848 3.354 11.778 2.237 2.93 5.259 4.394 9.068 4.394 3.77 0 6.61-.903 8.525-2.71 1.914-1.807 3.096-4.516 3.545-8.13h3.633zm40.283-5.713c0 3.926-.679 7.373-2.036 10.342-1.358 2.969-3.296 5.254-5.816 6.856-2.52 1.601-5.43 2.402-8.73 2.402-4.98 0-9.004-1.782-12.07-5.347-3.067-3.564-4.6-8.374-4.6-14.428v-4.395c0-3.887.688-7.33 2.065-10.327 1.377-2.998 3.326-5.303 5.845-6.914 2.52-1.612 5.42-2.417 8.701-2.417 3.282 0 6.177.79 8.687 2.373 2.51 1.582 4.448 3.818 5.815 6.709 1.367 2.89 2.08 6.24 2.139 10.049v5.097zm-3.604-4.629c0-5.136-1.162-9.16-3.486-12.07-2.324-2.91-5.508-4.365-9.55-4.365-3.966 0-7.125 1.46-9.478 4.38-2.354 2.92-3.53 6.997-3.53 12.231v4.453c0 5.059 1.171 9.068 3.515 12.027 2.344 2.959 5.527 4.438 9.55 4.438 4.083 0 7.267-1.46 9.552-4.38 2.285-2.92 3.427-6.987 3.427-12.202v-4.512zM299.551 51h-3.604l-24.521-36.504V51h-3.633V8.344h3.633l24.55 36.533V8.344h3.575V51z"/>
    </g>
</svg>
