<svg xmlns="http://www.w3.org/2000/svg" xmlns:xlink="http://www.w3.org/1999/xlink" width="1200" zoomAndPan="magnify" viewBox="0 0 900 599.999999" height="800" preserveAspectRatio="xMidYMid meet" version="1.0"><defs><g/><clipPath id="c4b33fb165"><path d="M 330.902344 92.351562 L 552 92.351562 L 552 355.601562 L 330.902344 355.601562 Z M 330.902344 92.351562 " clip-rule="nonzero"/></clipPath></defs><rect x="-90" width="1080" fill="#ffffff" y="-60" height="719.999999" fill-opacity="1"/><rect x="-90" width="1080" fill="#ffffff" y="-60" height="719.999999" fill-opacity="1"/><g fill="#000000" fill-opacity="1"><g transform="translate(156.021395, 414.248334)"><g><path d="M 21.140625 -15.5625 C 22.429688 -14.882812 23.4375 -13.9375 24.15625 -12.71875 C 24.875 -11.5 25.234375 -10.097656 25.234375 -8.515625 C 25.234375 -6.941406 24.816406 -5.507812 23.984375 -4.21875 C 23.148438 -2.925781 22.023438 -1.898438 20.609375 -1.140625 C 19.191406 -0.378906 17.640625 0 15.953125 0 L 3.375 0 L 3.375 -29.53125 L 15.609375 -29.53125 C 17.296875 -29.53125 18.804688 -29.195312 20.140625 -28.53125 C 21.472656 -27.875 22.523438 -26.96875 23.296875 -25.8125 C 24.078125 -24.664062 24.46875 -23.375 24.46875 -21.9375 C 24.46875 -20.664062 24.171875 -19.46875 23.578125 -18.34375 C 22.992188 -17.21875 22.179688 -16.289062 21.140625 -15.5625 Z M 18.265625 -20.921875 C 18.265625 -21.847656 17.96875 -22.609375 17.375 -23.203125 C 16.789062 -23.796875 15.988281 -24.09375 14.96875 -24.09375 L 9.65625 -24.09375 L 9.65625 -17.796875 L 14.96875 -17.796875 C 15.988281 -17.796875 16.789062 -18.09375 17.375 -18.6875 C 17.96875 -19.28125 18.265625 -20.023438 18.265625 -20.921875 Z M 15.3125 -5.859375 C 16.382812 -5.859375 17.234375 -6.164062 17.859375 -6.78125 C 18.492188 -7.40625 18.8125 -8.210938 18.8125 -9.203125 C 18.8125 -10.148438 18.492188 -10.929688 17.859375 -11.546875 C 17.234375 -12.171875 16.382812 -12.484375 15.3125 -12.484375 L 9.65625 -12.484375 L 9.65625 -5.859375 Z M 15.3125 -5.859375 "/></g></g></g><g fill="#000000" fill-opacity="1"><g transform="translate(191.535894, 414.248334)"><g><path d="M 19.609375 0 L 13.875 -10.078125 L 9.78125 -10.078125 L 9.78125 0 L 3.375 0 L 3.375 -29.53125 L 15.3125 -29.53125 C 17.28125 -29.53125 19.035156 -29.109375 20.578125 -28.265625 C 22.128906 -27.421875 23.351562 -26.265625 24.25 -24.796875 C 25.15625 -23.335938 25.609375 -21.65625 25.609375 -19.75 C 25.609375 -17.832031 25.125 -16.117188 24.15625 -14.609375 C 23.1875 -13.109375 21.882812 -11.960938 20.25 -11.171875 L 26.78125 0 Z M 9.78125 -23.625 L 9.78125 -15.984375 L 14.890625 -15.984375 C 16.210938 -15.984375 17.253906 -16.34375 18.015625 -17.0625 C 18.773438 -17.78125 19.15625 -18.6875 19.15625 -19.78125 C 19.15625 -20.90625 18.773438 -21.828125 18.015625 -22.546875 C 17.253906 -23.265625 16.210938 -23.625 14.890625 -23.625 Z M 9.78125 -23.625 "/></g></g></g><g fill="#000000" fill-opacity="1"><g transform="translate(227.851707, 414.248334)"><g><path d="M 3.375 0 L 3.375 -29.53125 L 9.78125 -29.53125 L 9.78125 0 Z M 3.375 0 "/></g></g></g><g fill="#000000" fill-opacity="1"><g transform="translate(249.448746, 414.248334)"><g><path d="M 16.328125 -15.4375 L 32.0625 -15.4375 C 32.03125 -13.101562 31.648438 -10.957031 30.921875 -9 C 30.191406 -7.050781 29.15625 -5.359375 27.8125 -3.921875 C 26.476562 -2.484375 24.890625 -1.363281 23.046875 -0.5625 C 21.210938 0.226562 19.179688 0.625 16.953125 0.625 C 14.785156 0.625 12.773438 0.25 10.921875 -0.5 C 9.066406 -1.257812 7.441406 -2.328125 6.046875 -3.703125 C 4.660156 -5.085938 3.585938 -6.722656 2.828125 -8.609375 C 2.066406 -10.492188 1.6875 -12.53125 1.6875 -14.71875 C 1.6875 -16.945312 2.054688 -18.992188 2.796875 -20.859375 C 3.546875 -22.734375 4.601562 -24.363281 5.96875 -25.75 C 7.332031 -27.144531 8.941406 -28.226562 10.796875 -29 C 12.648438 -29.769531 14.660156 -30.15625 16.828125 -30.15625 C 19.273438 -30.15625 21.539062 -29.675781 23.625 -28.71875 C 25.707031 -27.769531 27.453125 -26.453125 28.859375 -24.765625 C 30.265625 -23.078125 31.191406 -21.125 31.640625 -18.90625 L 25.0625 -18.90625 C 24.4375 -20.5 23.394531 -21.757812 21.9375 -22.6875 C 20.476562 -23.625 18.816406 -24.09375 16.953125 -24.09375 C 15.210938 -24.09375 13.679688 -23.691406 12.359375 -22.890625 C 11.035156 -22.085938 10 -20.988281 9.25 -19.59375 C 8.507812 -18.195312 8.140625 -16.570312 8.140625 -14.71875 C 8.140625 -12.894531 8.503906 -11.285156 9.234375 -9.890625 C 9.960938 -8.492188 10.988281 -7.398438 12.3125 -6.609375 C 13.632812 -5.828125 15.179688 -5.4375 16.953125 -5.4375 C 18.867188 -5.4375 20.585938 -5.898438 22.109375 -6.828125 C 23.628906 -7.753906 24.65625 -8.976562 25.1875 -10.5 L 16.328125 -10.5 Z M 16.328125 -15.4375 "/></g></g></g><g fill="#000000" fill-opacity="1"><g transform="translate(291.500244, 414.248334)"><g><path d="M 20.875 -29.53125 L 27.25 -29.53125 L 27.25 0 L 20.875 0 L 20.875 -12.1875 L 9.78125 -12.1875 L 9.78125 0 L 3.375 0 L 3.375 -29.53125 L 9.78125 -29.53125 L 9.78125 -18.140625 L 20.875 -18.140625 Z M 20.875 -29.53125 "/></g></g></g><g fill="#000000" fill-opacity="1"><g transform="translate(330.599545, 414.248334)"><g><path d="M 23.75 -29.53125 L 23.75 -23.578125 L 15.53125 -23.578125 L 15.53125 0 L 9.109375 0 L 9.109375 -23.578125 L 0.921875 -23.578125 L 0.921875 -29.53125 Z M 23.75 -29.53125 "/></g></g></g><g fill="#000000" fill-opacity="1"><g transform="translate(363.667956, 414.248334)"><g><path d="M 13.15625 0.59375 C 10.90625 0.59375 8.921875 0.1875 7.203125 -0.625 C 5.492188 -1.445312 4.15625 -2.613281 3.1875 -4.125 C 2.21875 -5.644531 1.734375 -7.460938 1.734375 -9.578125 L 8.1875 -9.578125 C 8.1875 -8.140625 8.679688 -7.078125 9.671875 -6.390625 C 10.671875 -5.703125 11.820312 -5.359375 13.125 -5.359375 C 13.9375 -5.359375 14.703125 -5.488281 15.421875 -5.75 C 16.140625 -6.019531 16.726562 -6.414062 17.1875 -6.9375 C 17.65625 -7.457031 17.890625 -8.082031 17.890625 -8.8125 C 17.890625 -9.570312 17.617188 -10.171875 17.078125 -10.609375 C 16.546875 -11.046875 15.828125 -11.40625 14.921875 -11.6875 C 14.023438 -11.96875 13.046875 -12.234375 11.984375 -12.484375 C 10.878906 -12.734375 9.75 -13.039062 8.59375 -13.40625 C 7.445312 -13.78125 6.378906 -14.269531 5.390625 -14.875 C 4.410156 -15.476562 3.625 -16.289062 3.03125 -17.3125 C 2.445312 -18.34375 2.15625 -19.644531 2.15625 -21.21875 C 2.15625 -24.0625 3.117188 -26.25 5.046875 -27.78125 C 6.972656 -29.3125 9.578125 -30.078125 12.859375 -30.078125 C 16.234375 -30.078125 18.847656 -29.222656 20.703125 -27.515625 C 22.566406 -25.816406 23.5 -23.507812 23.5 -20.59375 L 17.171875 -20.59375 C 17.171875 -21.851562 16.71875 -22.785156 15.8125 -23.390625 C 14.914062 -23.992188 13.878906 -24.296875 12.703125 -24.296875 C 11.660156 -24.296875 10.703125 -24.070312 9.828125 -23.625 C 8.953125 -23.175781 8.515625 -22.472656 8.515625 -21.515625 C 8.515625 -20.804688 8.773438 -20.25 9.296875 -19.84375 C 9.816406 -19.4375 10.503906 -19.097656 11.359375 -18.828125 C 12.222656 -18.566406 13.175781 -18.3125 14.21875 -18.0625 C 15.34375 -17.78125 16.492188 -17.445312 17.671875 -17.0625 C 18.859375 -16.6875 19.957031 -16.171875 20.96875 -15.515625 C 21.976562 -14.867188 22.800781 -14.007812 23.4375 -12.9375 C 24.070312 -11.875 24.390625 -10.53125 24.390625 -8.90625 C 24.390625 -6.757812 23.875 -4.984375 22.84375 -3.578125 C 21.8125 -2.171875 20.453125 -1.125 18.765625 -0.4375 C 17.078125 0.25 15.207031 0.59375 13.15625 0.59375 Z M 13.15625 0.59375 "/></g></g></g><g fill="#000000" fill-opacity="1"><g transform="translate(398.212443, 414.248334)"><g><path d="M 14.71875 -29.53125 C 16.71875 -29.53125 18.5 -29.085938 20.0625 -28.203125 C 21.625 -27.316406 22.867188 -26.109375 23.796875 -24.578125 C 24.722656 -23.046875 25.1875 -21.304688 25.1875 -19.359375 C 25.1875 -17.421875 24.726562 -15.6875 23.8125 -14.15625 C 22.894531 -12.625 21.648438 -11.421875 20.078125 -10.546875 C 18.503906 -9.671875 16.71875 -9.234375 14.71875 -9.234375 L 9.78125 -9.234375 L 9.78125 0 L 3.375 0 L 3.375 -29.53125 Z M 14.46875 -15.140625 C 15.738281 -15.140625 16.757812 -15.539062 17.53125 -16.34375 C 18.300781 -17.144531 18.6875 -18.148438 18.6875 -19.359375 C 18.6875 -20.597656 18.300781 -21.617188 17.53125 -22.421875 C 16.757812 -23.222656 15.738281 -23.625 14.46875 -23.625 L 9.78125 -23.625 L 9.78125 -15.140625 Z M 14.46875 -15.140625 "/></g></g></g><g fill="#000000" fill-opacity="1"><g transform="translate(432.883447, 414.248334)"><g><path d="M 17.375 0.625 C 15.125 0.625 13.039062 0.238281 11.125 -0.53125 C 9.21875 -1.300781 7.550781 -2.378906 6.125 -3.765625 C 4.707031 -5.160156 3.601562 -6.789062 2.8125 -8.65625 C 2.03125 -10.53125 1.640625 -12.566406 1.640625 -14.765625 C 1.640625 -16.960938 2.03125 -18.992188 2.8125 -20.859375 C 3.601562 -22.734375 4.707031 -24.363281 6.125 -25.75 C 7.550781 -27.144531 9.21875 -28.226562 11.125 -29 C 13.039062 -29.769531 15.125 -30.15625 17.375 -30.15625 C 19.625 -30.15625 21.707031 -29.769531 23.625 -29 C 25.539062 -28.226562 27.203125 -27.144531 28.609375 -25.75 C 30.015625 -24.363281 31.109375 -22.734375 31.890625 -20.859375 C 32.679688 -18.992188 33.078125 -16.960938 33.078125 -14.765625 C 33.078125 -12.566406 32.679688 -10.53125 31.890625 -8.65625 C 31.109375 -6.789062 30.015625 -5.160156 28.609375 -3.765625 C 27.203125 -2.378906 25.539062 -1.300781 23.625 -0.53125 C 21.707031 0.238281 19.625 0.625 17.375 0.625 Z M 17.375 -5.40625 C 19.144531 -5.40625 20.726562 -5.8125 22.125 -6.625 C 23.519531 -7.4375 24.617188 -8.546875 25.421875 -9.953125 C 26.222656 -11.359375 26.625 -12.960938 26.625 -14.765625 C 26.625 -16.535156 26.222656 -18.128906 25.421875 -19.546875 C 24.617188 -20.972656 23.519531 -22.09375 22.125 -22.90625 C 20.726562 -23.71875 19.144531 -24.125 17.375 -24.125 C 15.632812 -24.125 14.0625 -23.71875 12.65625 -22.90625 C 11.25 -22.09375 10.132812 -20.972656 9.3125 -19.546875 C 8.5 -18.128906 8.09375 -16.535156 8.09375 -14.765625 C 8.09375 -12.992188 8.5 -11.394531 9.3125 -9.96875 C 10.132812 -8.550781 11.25 -7.4375 12.65625 -6.625 C 14.0625 -5.8125 15.632812 -5.40625 17.375 -5.40625 Z M 17.375 -5.40625 "/></g></g></g><g fill="#000000" fill-opacity="1"><g transform="translate(476.031474, 414.248334)"><g><path d="M 23.75 -29.53125 L 23.75 -23.578125 L 15.53125 -23.578125 L 15.53125 0 L 9.109375 0 L 9.109375 -23.578125 L 0.921875 -23.578125 L 0.921875 -29.53125 Z M 23.75 -29.53125 "/></g></g></g><g fill="#000000" fill-opacity="1"><g transform="translate(509.099895, 414.248334)"><g/></g></g><g fill="#000000" fill-opacity="1"><g transform="translate(527.61821, 414.248334)"><g><path d="M 21.140625 -15.5625 C 22.429688 -14.882812 23.4375 -13.9375 24.15625 -12.71875 C 24.875 -11.5 25.234375 -10.097656 25.234375 -8.515625 C 25.234375 -6.941406 24.816406 -5.507812 23.984375 -4.21875 C 23.148438 -2.925781 22.023438 -1.898438 20.609375 -1.140625 C 19.191406 -0.378906 17.640625 0 15.953125 0 L 3.375 0 L 3.375 -29.53125 L 15.609375 -29.53125 C 17.296875 -29.53125 18.804688 -29.195312 20.140625 -28.53125 C 21.472656 -27.875 22.523438 -26.96875 23.296875 -25.8125 C 24.078125 -24.664062 24.46875 -23.375 24.46875 -21.9375 C 24.46875 -20.664062 24.171875 -19.46875 23.578125 -18.34375 C 22.992188 -17.21875 22.179688 -16.289062 21.140625 -15.5625 Z M 18.265625 -20.921875 C 18.265625 -21.847656 17.96875 -22.609375 17.375 -23.203125 C 16.789062 -23.796875 15.988281 -24.09375 14.96875 -24.09375 L 9.65625 -24.09375 L 9.65625 -17.796875 L 14.96875 -17.796875 C 15.988281 -17.796875 16.789062 -18.09375 17.375 -18.6875 C 17.96875 -19.28125 18.265625 -20.023438 18.265625 -20.921875 Z M 15.3125 -5.859375 C 16.382812 -5.859375 17.234375 -6.164062 17.859375 -6.78125 C 18.492188 -7.40625 18.8125 -8.210938 18.8125 -9.203125 C 18.8125 -10.148438 18.492188 -10.929688 17.859375 -11.546875 C 17.234375 -12.171875 16.382812 -12.484375 15.3125 -12.484375 L 9.65625 -12.484375 L 9.65625 -5.859375 Z M 15.3125 -5.859375 "/></g></g></g><g fill="#000000" fill-opacity="1"><g transform="translate(563.132699, 414.248334)"><g><path d="M 3.375 0 L 3.375 -29.53125 L 9.78125 -29.53125 L 9.78125 0 Z M 3.375 0 "/></g></g></g><g fill="#000000" fill-opacity="1"><g transform="translate(584.729749, 414.248334)"><g><path d="M 13.15625 0.59375 C 10.90625 0.59375 8.921875 0.1875 7.203125 -0.625 C 5.492188 -1.445312 4.15625 -2.613281 3.1875 -4.125 C 2.21875 -5.644531 1.734375 -7.460938 1.734375 -9.578125 L 8.1875 -9.578125 C 8.1875 -8.140625 8.679688 -7.078125 9.671875 -6.390625 C 10.671875 -5.703125 11.820312 -5.359375 13.125 -5.359375 C 13.9375 -5.359375 14.703125 -5.488281 15.421875 -5.75 C 16.140625 -6.019531 16.726562 -6.414062 17.1875 -6.9375 C 17.65625 -7.457031 17.890625 -8.082031 17.890625 -8.8125 C 17.890625 -9.570312 17.617188 -10.171875 17.078125 -10.609375 C 16.546875 -11.046875 15.828125 -11.40625 14.921875 -11.6875 C 14.023438 -11.96875 13.046875 -12.234375 11.984375 -12.484375 C 10.878906 -12.734375 9.75 -13.039062 8.59375 -13.40625 C 7.445312 -13.78125 6.378906 -14.269531 5.390625 -14.875 C 4.410156 -15.476562 3.625 -16.289062 3.03125 -17.3125 C 2.445312 -18.34375 2.15625 -19.644531 2.15625 -21.21875 C 2.15625 -24.0625 3.117188 -26.25 5.046875 -27.78125 C 6.972656 -29.3125 9.578125 -30.078125 12.859375 -30.078125 C 16.234375 -30.078125 18.847656 -29.222656 20.703125 -27.515625 C 22.566406 -25.816406 23.5 -23.507812 23.5 -20.59375 L 17.171875 -20.59375 C 17.171875 -21.851562 16.71875 -22.785156 15.8125 -23.390625 C 14.914062 -23.992188 13.878906 -24.296875 12.703125 -24.296875 C 11.660156 -24.296875 10.703125 -24.070312 9.828125 -23.625 C 8.953125 -23.175781 8.515625 -22.472656 8.515625 -21.515625 C 8.515625 -20.804688 8.773438 -20.25 9.296875 -19.84375 C 9.816406 -19.4375 10.503906 -19.097656 11.359375 -18.828125 C 12.222656 -18.566406 13.175781 -18.3125 14.21875 -18.0625 C 15.34375 -17.78125 16.492188 -17.445312 17.671875 -17.0625 C 18.859375 -16.6875 19.957031 -16.171875 20.96875 -15.515625 C 21.976562 -14.867188 22.800781 -14.007812 23.4375 -12.9375 C 24.070312 -11.875 24.390625 -10.53125 24.390625 -8.90625 C 24.390625 -6.757812 23.875 -4.984375 22.84375 -3.578125 C 21.8125 -2.171875 20.453125 -1.125 18.765625 -0.4375 C 17.078125 0.25 15.207031 0.59375 13.15625 0.59375 Z M 13.15625 0.59375 "/></g></g></g><g fill="#000000" fill-opacity="1"><g transform="translate(619.274236, 414.248334)"><g><path d="M 23.75 -29.53125 L 23.75 -23.578125 L 15.53125 -23.578125 L 15.53125 0 L 9.109375 0 L 9.109375 -23.578125 L 0.921875 -23.578125 L 0.921875 -29.53125 Z M 23.75 -29.53125 "/></g></g></g><g fill="#000000" fill-opacity="1"><g transform="translate(652.342658, 414.248334)"><g><path d="M 19.609375 0 L 13.875 -10.078125 L 9.78125 -10.078125 L 9.78125 0 L 3.375 0 L 3.375 -29.53125 L 15.3125 -29.53125 C 17.28125 -29.53125 19.035156 -29.109375 20.578125 -28.265625 C 22.128906 -27.421875 23.351562 -26.265625 24.25 -24.796875 C 25.15625 -23.335938 25.609375 -21.65625 25.609375 -19.75 C 25.609375 -17.832031 25.125 -16.117188 24.15625 -14.609375 C 23.1875 -13.109375 21.882812 -11.960938 20.25 -11.171875 L 26.78125 0 Z M 9.78125 -23.625 L 9.78125 -15.984375 L 14.890625 -15.984375 C 16.210938 -15.984375 17.253906 -16.34375 18.015625 -17.0625 C 18.773438 -17.78125 19.15625 -18.6875 19.15625 -19.78125 C 19.15625 -20.90625 18.773438 -21.828125 18.015625 -22.546875 C 17.253906 -23.265625 16.210938 -23.625 14.890625 -23.625 Z M 9.78125 -23.625 "/></g></g></g><g fill="#000000" fill-opacity="1"><g transform="translate(688.658459, 414.248334)"><g><path d="M 17.375 0.625 C 15.125 0.625 13.039062 0.238281 11.125 -0.53125 C 9.21875 -1.300781 7.550781 -2.378906 6.125 -3.765625 C 4.707031 -5.160156 3.601562 -6.789062 2.8125 -8.65625 C 2.03125 -10.53125 1.640625 -12.566406 1.640625 -14.765625 C 1.640625 -16.960938 2.03125 -18.992188 2.8125 -20.859375 C 3.601562 -22.734375 4.707031 -24.363281 6.125 -25.75 C 7.550781 -27.144531 9.21875 -28.226562 11.125 -29 C 13.039062 -29.769531 15.125 -30.15625 17.375 -30.15625 C 19.625 -30.15625 21.707031 -29.769531 23.625 -29 C 25.539062 -28.226562 27.203125 -27.144531 28.609375 -25.75 C 30.015625 -24.363281 31.109375 -22.734375 31.890625 -20.859375 C 32.679688 -18.992188 33.078125 -16.960938 33.078125 -14.765625 C 33.078125 -12.566406 32.679688 -10.53125 31.890625 -8.65625 C 31.109375 -6.789062 30.015625 -5.160156 28.609375 -3.765625 C 27.203125 -2.378906 25.539062 -1.300781 23.625 -0.53125 C 21.707031 0.238281 19.625 0.625 17.375 0.625 Z M 17.375 -5.40625 C 19.144531 -5.40625 20.726562 -5.8125 22.125 -6.625 C 23.519531 -7.4375 24.617188 -8.546875 25.421875 -9.953125 C 26.222656 -11.359375 26.625 -12.960938 26.625 -14.765625 C 26.625 -16.535156 26.222656 -18.128906 25.421875 -19.546875 C 24.617188 -20.972656 23.519531 -22.09375 22.125 -22.90625 C 20.726562 -23.71875 19.144531 -24.125 17.375 -24.125 C 15.632812 -24.125 14.0625 -23.71875 12.65625 -22.90625 C 11.25 -22.09375 10.132812 -20.972656 9.3125 -19.546875 C 8.5 -18.128906 8.09375 -16.535156 8.09375 -14.765625 C 8.09375 -12.992188 8.5 -11.394531 9.3125 -9.96875 C 10.132812 -8.550781 11.25 -7.4375 12.65625 -6.625 C 14.0625 -5.8125 15.632812 -5.40625 17.375 -5.40625 Z M 17.375 -5.40625 "/></g></g></g><g fill="#fe1f3c" fill-opacity="1"><g transform="translate(283.221776, 463.281448)"><g><path d="M 12.765625 -14.328125 L 5.9375 -14.328125 L 5.9375 -10.375 L 12.09375 -10.375 L 12.09375 -6.875 L 5.9375 -6.875 L 5.9375 0 L 2.046875 0 L 2.046875 -17.9375 L 12.765625 -17.9375 Z M 12.765625 -14.328125 "/></g></g></g><g fill="#fe1f3c" fill-opacity="1"><g transform="translate(317.427622, 463.281448)"><g><path d="M 10.5625 0.390625 C 9.1875 0.390625 7.914062 0.15625 6.75 -0.3125 C 5.59375 -0.789062 4.582031 -1.453125 3.71875 -2.296875 C 2.863281 -3.140625 2.195312 -4.128906 1.71875 -5.265625 C 1.238281 -6.398438 1 -7.632812 1 -8.96875 C 1 -10.300781 1.238281 -11.535156 1.71875 -12.671875 C 2.195312 -13.804688 2.863281 -14.796875 3.71875 -15.640625 C 4.582031 -16.484375 5.59375 -17.140625 6.75 -17.609375 C 7.914062 -18.085938 9.1875 -18.328125 10.5625 -18.328125 C 11.925781 -18.328125 13.1875 -18.085938 14.34375 -17.609375 C 15.507812 -17.140625 16.519531 -16.484375 17.375 -15.640625 C 18.226562 -14.796875 18.894531 -13.804688 19.375 -12.671875 C 19.851562 -11.535156 20.09375 -10.300781 20.09375 -8.96875 C 20.09375 -7.632812 19.851562 -6.398438 19.375 -5.265625 C 18.894531 -4.128906 18.226562 -3.140625 17.375 -2.296875 C 16.519531 -1.453125 15.507812 -0.789062 14.34375 -0.3125 C 13.1875 0.15625 11.925781 0.390625 10.5625 0.390625 Z M 10.5625 -3.28125 C 11.632812 -3.28125 12.59375 -3.523438 13.4375 -4.015625 C 14.28125 -4.515625 14.945312 -5.191406 15.4375 -6.046875 C 15.925781 -6.898438 16.171875 -7.875 16.171875 -8.96875 C 16.171875 -10.039062 15.925781 -11.007812 15.4375 -11.875 C 14.945312 -12.738281 14.28125 -13.414062 13.4375 -13.90625 C 12.59375 -14.40625 11.632812 -14.65625 10.5625 -14.65625 C 9.5 -14.65625 8.539062 -14.40625 7.6875 -13.90625 C 6.832031 -13.414062 6.15625 -12.738281 5.65625 -11.875 C 5.164062 -11.007812 4.921875 -10.039062 4.921875 -8.96875 C 4.921875 -7.894531 5.164062 -6.925781 5.65625 -6.0625 C 6.15625 -5.195312 6.832031 -4.515625 7.6875 -4.015625 C 8.539062 -3.523438 9.5 -3.28125 10.5625 -3.28125 Z M 10.5625 -3.28125 "/></g></g></g><g fill="#fe1f3c" fill-opacity="1"><g transform="translate(359.009106, 463.281448)"><g><path d="M 10.5625 0.390625 C 9.1875 0.390625 7.914062 0.15625 6.75 -0.3125 C 5.59375 -0.789062 4.582031 -1.453125 3.71875 -2.296875 C 2.863281 -3.140625 2.195312 -4.128906 1.71875 -5.265625 C 1.238281 -6.398438 1 -7.632812 1 -8.96875 C 1 -10.300781 1.238281 -11.535156 1.71875 -12.671875 C 2.195312 -13.804688 2.863281 -14.796875 3.71875 -15.640625 C 4.582031 -16.484375 5.59375 -17.140625 6.75 -17.609375 C 7.914062 -18.085938 9.1875 -18.328125 10.5625 -18.328125 C 11.925781 -18.328125 13.1875 -18.085938 14.34375 -17.609375 C 15.507812 -17.140625 16.519531 -16.484375 17.375 -15.640625 C 18.226562 -14.796875 18.894531 -13.804688 19.375 -12.671875 C 19.851562 -11.535156 20.09375 -10.300781 20.09375 -8.96875 C 20.09375 -7.632812 19.851562 -6.398438 19.375 -5.265625 C 18.894531 -4.128906 18.226562 -3.140625 17.375 -2.296875 C 16.519531 -1.453125 15.507812 -0.789062 14.34375 -0.3125 C 13.1875 0.15625 11.925781 0.390625 10.5625 0.390625 Z M 10.5625 -3.28125 C 11.632812 -3.28125 12.59375 -3.523438 13.4375 -4.015625 C 14.28125 -4.515625 14.945312 -5.191406 15.4375 -6.046875 C 15.925781 -6.898438 16.171875 -7.875 16.171875 -8.96875 C 16.171875 -10.039062 15.925781 -11.007812 15.4375 -11.875 C 14.945312 -12.738281 14.28125 -13.414062 13.4375 -13.90625 C 12.59375 -14.40625 11.632812 -14.65625 10.5625 -14.65625 C 9.5 -14.65625 8.539062 -14.40625 7.6875 -13.90625 C 6.832031 -13.414062 6.15625 -12.738281 5.65625 -11.875 C 5.164062 -11.007812 4.921875 -10.039062 4.921875 -8.96875 C 4.921875 -7.894531 5.164062 -6.925781 5.65625 -6.0625 C 6.15625 -5.195312 6.832031 -4.515625 7.6875 -4.015625 C 8.539062 -3.523438 9.5 -3.28125 10.5625 -3.28125 Z M 10.5625 -3.28125 "/></g></g></g><g fill="#fe1f3c" fill-opacity="1"><g transform="translate(400.590597, 463.281448)"><g><path d="M 8.84375 -17.9375 C 10.15625 -17.9375 11.363281 -17.710938 12.46875 -17.265625 C 13.582031 -16.828125 14.546875 -16.207031 15.359375 -15.40625 C 16.171875 -14.601562 16.800781 -13.65625 17.25 -12.5625 C 17.707031 -11.476562 17.9375 -10.289062 17.9375 -9 C 17.9375 -7.695312 17.707031 -6.5 17.25 -5.40625 C 16.800781 -4.3125 16.171875 -3.359375 15.359375 -2.546875 C 14.546875 -1.734375 13.582031 -1.101562 12.46875 -0.65625 C 11.363281 -0.21875 10.15625 0 8.84375 0 L 2.046875 0 L 2.046875 -17.9375 Z M 8.734375 -3.609375 C 9.765625 -3.609375 10.671875 -3.835938 11.453125 -4.296875 C 12.242188 -4.765625 12.859375 -5.40625 13.296875 -6.21875 C 13.742188 -7.03125 13.96875 -7.957031 13.96875 -9 C 13.96875 -10.039062 13.742188 -10.960938 13.296875 -11.765625 C 12.859375 -12.566406 12.242188 -13.191406 11.453125 -13.640625 C 10.671875 -14.097656 9.765625 -14.328125 8.734375 -14.328125 L 5.9375 -14.328125 L 5.9375 -3.609375 Z M 8.734375 -3.609375 "/></g></g></g><g fill="#fe1f3c" fill-opacity="1"><g transform="translate(440.072065, 463.281448)"><g/></g></g><g fill="#fe1f3c" fill-opacity="1"><g transform="translate(466.697366, 463.281448)"><g><path d="M 12.84375 -9.453125 C 13.625 -9.046875 14.234375 -8.46875 14.671875 -7.71875 C 15.109375 -6.976562 15.328125 -6.128906 15.328125 -5.171875 C 15.328125 -4.210938 15.070312 -3.34375 14.5625 -2.5625 C 14.0625 -1.78125 13.378906 -1.15625 12.515625 -0.6875 C 11.648438 -0.226562 10.707031 0 9.6875 0 L 2.046875 0 L 2.046875 -17.9375 L 9.484375 -17.9375 C 10.503906 -17.9375 11.421875 -17.734375 12.234375 -17.328125 C 13.046875 -16.929688 13.6875 -16.378906 14.15625 -15.671875 C 14.625 -14.972656 14.859375 -14.191406 14.859375 -13.328125 C 14.859375 -12.554688 14.675781 -11.828125 14.3125 -11.140625 C 13.957031 -10.460938 13.46875 -9.898438 12.84375 -9.453125 Z M 11.09375 -12.703125 C 11.09375 -13.273438 10.910156 -13.738281 10.546875 -14.09375 C 10.191406 -14.445312 9.707031 -14.625 9.09375 -14.625 L 5.875 -14.625 L 5.875 -10.8125 L 9.09375 -10.8125 C 9.707031 -10.8125 10.191406 -10.988281 10.546875 -11.34375 C 10.910156 -11.707031 11.09375 -12.160156 11.09375 -12.703125 Z M 9.296875 -3.5625 C 9.953125 -3.5625 10.46875 -3.75 10.84375 -4.125 C 11.226562 -4.5 11.421875 -4.988281 11.421875 -5.59375 C 11.421875 -6.164062 11.226562 -6.640625 10.84375 -7.015625 C 10.46875 -7.390625 9.953125 -7.578125 9.296875 -7.578125 L 5.875 -7.578125 L 5.875 -3.5625 Z M 9.296875 -3.5625 "/></g></g></g><g fill="#fe1f3c" fill-opacity="1"><g transform="translate(503.643469, 463.281448)"><g><path d="M 5.9375 -3.609375 L 12.8125 -3.609375 L 12.8125 0 L 2.046875 0 L 2.046875 -17.9375 L 5.9375 -17.9375 Z M 5.9375 -3.609375 "/></g></g></g><g fill="#fe1f3c" fill-opacity="1"><g transform="translate(537.516382, 463.281448)"><g><path d="M 10.5625 0.390625 C 9.1875 0.390625 7.914062 0.15625 6.75 -0.3125 C 5.59375 -0.789062 4.582031 -1.453125 3.71875 -2.296875 C 2.863281 -3.140625 2.195312 -4.128906 1.71875 -5.265625 C 1.238281 -6.398438 1 -7.632812 1 -8.96875 C 1 -10.300781 1.238281 -11.535156 1.71875 -12.671875 C 2.195312 -13.804688 2.863281 -14.796875 3.71875 -15.640625 C 4.582031 -16.484375 5.59375 -17.140625 6.75 -17.609375 C 7.914062 -18.085938 9.1875 -18.328125 10.5625 -18.328125 C 11.925781 -18.328125 13.1875 -18.085938 14.34375 -17.609375 C 15.507812 -17.140625 16.519531 -16.484375 17.375 -15.640625 C 18.226562 -14.796875 18.894531 -13.804688 19.375 -12.671875 C 19.851562 -11.535156 20.09375 -10.300781 20.09375 -8.96875 C 20.09375 -7.632812 19.851562 -6.398438 19.375 -5.265625 C 18.894531 -4.128906 18.226562 -3.140625 17.375 -2.296875 C 16.519531 -1.453125 15.507812 -0.789062 14.34375 -0.3125 C 13.1875 0.15625 11.925781 0.390625 10.5625 0.390625 Z M 10.5625 -3.28125 C 11.632812 -3.28125 12.59375 -3.523438 13.4375 -4.015625 C 14.28125 -4.515625 14.945312 -5.191406 15.4375 -6.046875 C 15.925781 -6.898438 16.171875 -7.875 16.171875 -8.96875 C 16.171875 -10.039062 15.925781 -11.007812 15.4375 -11.875 C 14.945312 -12.738281 14.28125 -13.414062 13.4375 -13.90625 C 12.59375 -14.40625 11.632812 -14.65625 10.5625 -14.65625 C 9.5 -14.65625 8.539062 -14.40625 7.6875 -13.90625 C 6.832031 -13.414062 6.15625 -12.738281 5.65625 -11.875 C 5.164062 -11.007812 4.921875 -10.039062 4.921875 -8.96875 C 4.921875 -7.894531 5.164062 -6.925781 5.65625 -6.0625 C 6.15625 -5.195312 6.832031 -4.515625 7.6875 -4.015625 C 8.539062 -3.523438 9.5 -3.28125 10.5625 -3.28125 Z M 10.5625 -3.28125 "/></g></g></g><g fill="#fe1f3c" fill-opacity="1"><g transform="translate(579.09786, 463.281448)"><g><path d="M 9.921875 -9.375 L 19.46875 -9.375 C 19.457031 -7.957031 19.226562 -6.65625 18.78125 -5.46875 C 18.332031 -4.28125 17.703125 -3.25 16.890625 -2.375 C 16.085938 -1.507812 15.125 -0.832031 14 -0.34375 C 12.882812 0.144531 11.648438 0.390625 10.296875 0.390625 C 8.984375 0.390625 7.765625 0.160156 6.640625 -0.296875 C 5.515625 -0.765625 4.523438 -1.414062 3.671875 -2.25 C 2.828125 -3.09375 2.175781 -4.082031 1.71875 -5.21875 C 1.257812 -6.363281 1.03125 -7.601562 1.03125 -8.9375 C 1.03125 -10.289062 1.253906 -11.535156 1.703125 -12.671875 C 2.160156 -13.804688 2.800781 -14.796875 3.625 -15.640625 C 4.457031 -16.484375 5.4375 -17.140625 6.5625 -17.609375 C 7.6875 -18.085938 8.90625 -18.328125 10.21875 -18.328125 C 11.707031 -18.328125 13.082031 -18.035156 14.34375 -17.453125 C 15.613281 -16.867188 16.675781 -16.0625 17.53125 -15.03125 C 18.382812 -14.007812 18.945312 -12.828125 19.21875 -11.484375 L 15.21875 -11.484375 C 14.84375 -12.453125 14.210938 -13.21875 13.328125 -13.78125 C 12.441406 -14.34375 11.429688 -14.625 10.296875 -14.625 C 9.242188 -14.625 8.3125 -14.378906 7.5 -13.890625 C 6.695312 -13.410156 6.070312 -12.75 5.625 -11.90625 C 5.175781 -11.0625 4.953125 -10.070312 4.953125 -8.9375 C 4.953125 -7.832031 5.171875 -6.851562 5.609375 -6 C 6.054688 -5.15625 6.679688 -4.492188 7.484375 -4.015625 C 8.285156 -3.546875 9.222656 -3.3125 10.296875 -3.3125 C 11.460938 -3.3125 12.503906 -3.59375 13.421875 -4.15625 C 14.347656 -4.71875 14.972656 -5.457031 15.296875 -6.375 L 9.921875 -6.375 Z M 9.921875 -9.375 "/></g></g></g><g clip-path="url(#c4b33fb165)"><path fill="#fe1f3c" d="M 441.144531 114.65625 C 465.394531 114.65625 487.75 124.859375 503.738281 140.375 C 519.253906 156.367188 529.460938 178.722656 529.460938 202.96875 C 529.460938 214.121094 527.039062 224.800781 523.621094 234.53125 C 519.253906 244.734375 513.890625 253.9375 506.632812 262.195312 L 506.15625 262.195312 C 498.375 270.929688 489.640625 279.1875 480.4375 287.917969 L 479.488281 287.445312 L 471.707031 279.660156 L 448.878906 256.832031 L 457.136719 248.574219 L 480.4375 271.402344 C 486.277344 265.5625 492.585938 259.777344 497.425781 253.9375 L 497.898438 253.9375 C 504.210938 247.152344 509.050781 238.894531 512.46875 230.164062 C 515.363281 221.90625 517.308594 212.699219 517.308594 202.96875 C 517.308594 181.613281 509.050781 162.679688 495.007812 149.109375 C 481.4375 135.0625 462.5 126.804688 441.144531 126.804688 C 420.261719 126.804688 401.378906 135.0625 387.28125 149.109375 C 373.710938 162.679688 364.980469 181.613281 364.980469 202.96875 C 364.980469 212.699219 366.925781 221.90625 370.292969 230.164062 C 373.710938 238.894531 378.550781 247.152344 384.863281 253.9375 C 390.175781 259.777344 395.542969 265.5625 401.851562 270.929688 L 432.414062 240.367188 L 420.261719 228.21875 C 412.476562 232.582031 402.328125 231.636719 395.542969 224.800781 L 373.238281 202.496094 L 379.550781 196.183594 L 398.011719 214.648438 L 403.851562 208.808594 L 385.390625 190.347656 L 391.226562 184.507812 L 409.691406 202.96875 L 415.527344 197.132812 L 397.066406 178.667969 L 402.90625 172.832031 L 425.207031 195.132812 C 431.992188 201.917969 433.464844 212.121094 429.101562 219.855469 L 440.722656 232.003906 L 453.347656 219.382812 C 449.457031 211.121094 451.875 199.5 460.605469 190.765625 C 470.8125 180.5625 485.855469 178.617188 494.113281 186.875 C 502.371094 195.132812 500.425781 210.175781 490.21875 220.378906 C 481.488281 229.113281 469.863281 231.53125 461.605469 227.640625 L 448.980469 240.261719 L 440.671875 248.574219 L 438.726562 250.519531 L 410.109375 279.132812 L 402.328125 286.917969 L 401.851562 287.390625 C 392.648438 279.132812 383.917969 270.402344 376.132812 262.144531 C 368.875 253.886719 363.035156 244.679688 359.140625 234.476562 C 355.25 224.746094 353.304688 214.121094 353.304688 202.917969 C 353.304688 178.667969 363.035156 156.3125 379.023438 140.324219 C 395.066406 124.859375 416.898438 114.65625 441.144531 114.65625 Z M 441.144531 92.351562 C 456.1875 92.351562 470.285156 95.246094 483.382812 100.609375 C 496.953125 106.449219 509.105469 114.183594 519.308594 124.859375 C 529.984375 135.0625 537.769531 147.160156 543.554688 160.785156 C 548.867188 173.882812 551.816406 188.453125 551.816406 203.023438 C 551.816406 209.808594 551.339844 216.59375 549.867188 222.90625 C 548.921875 229.691406 546.976562 236.476562 544.554688 242.789062 C 542.136719 249.101562 539.242188 254.9375 535.351562 260.722656 C 531.933594 266.5625 527.566406 271.875 523.199219 277.242188 C 518.835938 282.078125 513.996094 286.972656 509.628906 291.335938 C 504.789062 295.703125 500.425781 300.542969 495.53125 304.433594 L 486.800781 312.691406 L 480.488281 318.53125 C 476.125 322.421875 472.230469 326.316406 470.757812 327.261719 C 467.867188 330.15625 464.445312 333.101562 461.027344 336.46875 L 441.144531 355.402344 L 421.734375 336.46875 C 417.84375 333.050781 414.949219 330.15625 412.003906 327.261719 C 409.113281 324.84375 405.691406 321.425781 402.273438 318.53125 C 396.960938 313.691406 391.597656 308.800781 386.285156 303.960938 C 381.917969 299.59375 377.078125 295.230469 372.714844 290.863281 C 368.347656 286.5 363.980469 282.132812 359.617188 277.292969 C 354.777344 271.980469 350.882812 266.617188 346.992188 260.777344 C 343.625 254.886719 340.730469 249.101562 338.261719 242.789062 C 335.839844 236.476562 333.894531 229.691406 332.421875 222.90625 C 331.476562 216.59375 330.949219 209.808594 330.949219 203.023438 C 330.949219 188.453125 333.839844 173.882812 339.207031 160.785156 C 344.519531 147.214844 352.777344 135.0625 362.980469 124.859375 C 373.660156 114.183594 385.808594 106.398438 398.90625 100.609375 C 412.53125 95.246094 426.574219 92.351562 441.144531 92.351562 Z M 479.488281 110.816406 C 467.339844 105.976562 454.769531 103.558594 441.144531 103.558594 C 428.046875 103.558594 414.949219 105.976562 403.273438 110.816406 C 391.121094 115.65625 380.445312 122.964844 370.765625 132.644531 C 361.5625 141.847656 354.25 153 349.410156 164.675781 C 344.570312 176.828125 341.625 189.398438 341.625 203.023438 C 341.625 208.859375 342.101562 215.171875 343.574219 220.960938 C 344.519531 227.269531 345.992188 233.109375 348.410156 238.894531 C 350.832031 244.207031 353.25 249.574219 356.671875 254.886719 C 359.5625 260.199219 363.457031 265.089844 367.347656 269.457031 L 367.820312 269.929688 C 371.714844 274.296875 376.078125 278.660156 380.445312 283.027344 C 385.285156 287.867188 389.648438 291.757812 394.015625 296.125 L 402.273438 303.910156 L 409.53125 310.21875 C 412.425781 313.113281 415.84375 316.058594 419.261719 319.425781 C 423.15625 322.84375 426.523438 325.738281 429.46875 328.628906 L 441.09375 340.253906 L 453.242188 328.628906 C 456.136719 325.738281 459.554688 322.792969 462.972656 319.425781 C 468.285156 314.585938 470.757812 312.167969 473.179688 310.21875 L 479.488281 304.382812 L 488.222656 296.597656 C 492.585938 292.230469 497.425781 287.867188 501.792969 283.5 C 506.15625 279.132812 510.523438 274.296875 514.890625 269.929688 L 514.890625 269.457031 C 519.253906 265.089844 522.675781 260.25 526.039062 254.886719 C 529.460938 249.574219 531.878906 244.207031 534.300781 238.894531 C 536.246094 233.058594 538.191406 227.269531 539.136719 220.960938 C 540.085938 215.121094 540.609375 208.808594 540.609375 203.023438 C 540.609375 189.453125 538.191406 176.828125 533.351562 164.675781 C 528.511719 153.054688 521.203125 141.847656 511.523438 132.644531 C 502.265625 122.914062 491.113281 115.65625 479.488281 110.816406 Z M 471.707031 296.175781 C 469.757812 298.121094 467.339844 300.070312 465.394531 302.015625 C 458.609375 307.855469 451.824219 314.164062 445.511719 320.476562 L 441.144531 324.371094 L 437.253906 320.476562 C 430.46875 314.164062 424.15625 307.855469 417.371094 302.015625 C 414.949219 299.59375 412.53125 297.648438 410.109375 295.703125 L 418.84375 286.972656 C 420.789062 288.917969 423.207031 291.335938 425.15625 293.285156 C 430.992188 298.121094 436.304688 303.015625 441.144531 307.855469 C 446.457031 303.015625 451.824219 298.121094 457.136719 293.285156 C 459.082031 291.335938 461.027344 289.390625 463.445312 287.445312 Z M 471.707031 296.175781 " fill-opacity="1" fill-rule="nonzero"/></g></svg>