<svg xmlns="http://www.w3.org/2000/svg" xmlns:xlink="http://www.w3.org/1999/xlink" width="400" zoomAndPan="magnify" viewBox="0 0 300 131.249995" height="175" preserveAspectRatio="xMidYMid meet" version="1.0"><defs><g/><clipPath id="2b9cd603e8"><path d="M 13.902344 18.367188 L 92.949219 18.367188 L 92.949219 112.332031 L 13.902344 112.332031 Z M 13.902344 18.367188 " clip-rule="nonzero"/></clipPath></defs><g fill="#000000" fill-opacity="1"><g transform="translate(98.818784, 57.147075)"><g><path d="M 11.984375 -8.828125 C 12.710938 -8.441406 13.28125 -7.898438 13.6875 -7.203125 C 14.09375 -6.515625 14.296875 -5.722656 14.296875 -4.828125 C 14.296875 -3.929688 14.0625 -3.117188 13.59375 -2.390625 C 13.125 -1.660156 12.484375 -1.078125 11.671875 -0.640625 C 10.867188 -0.210938 9.988281 0 9.03125 0 L 1.90625 0 L 1.90625 -16.734375 L 8.84375 -16.734375 C 9.800781 -16.734375 10.65625 -16.546875 11.40625 -16.171875 C 12.164062 -15.796875 12.765625 -15.28125 13.203125 -14.625 C 13.640625 -13.976562 13.859375 -13.25 13.859375 -12.4375 C 13.859375 -11.71875 13.691406 -11.035156 13.359375 -10.390625 C 13.023438 -9.753906 12.566406 -9.234375 11.984375 -8.828125 Z M 10.34375 -11.859375 C 10.34375 -12.378906 10.175781 -12.804688 9.84375 -13.140625 C 9.507812 -13.484375 9.054688 -13.65625 8.484375 -13.65625 L 5.46875 -13.65625 L 5.46875 -10.09375 L 8.484375 -10.09375 C 9.054688 -10.09375 9.507812 -10.257812 9.84375 -10.59375 C 10.175781 -10.925781 10.34375 -11.347656 10.34375 -11.859375 Z M 8.671875 -3.328125 C 9.285156 -3.328125 9.769531 -3.5 10.125 -3.84375 C 10.476562 -4.195312 10.65625 -4.65625 10.65625 -5.21875 C 10.65625 -5.757812 10.476562 -6.203125 10.125 -6.546875 C 9.769531 -6.898438 9.285156 -7.078125 8.671875 -7.078125 L 5.46875 -7.078125 L 5.46875 -3.328125 Z M 8.671875 -3.328125 "/></g></g></g><g fill="#000000" fill-opacity="1"><g transform="translate(117.484846, 57.147075)"><g><path d="M 11.109375 0 L 7.859375 -5.71875 L 5.546875 -5.71875 L 5.546875 0 L 1.90625 0 L 1.90625 -16.734375 L 8.671875 -16.734375 C 9.785156 -16.734375 10.78125 -16.492188 11.65625 -16.015625 C 12.539062 -15.535156 13.238281 -14.878906 13.75 -14.046875 C 14.257812 -13.222656 14.515625 -12.269531 14.515625 -11.1875 C 14.515625 -10.101562 14.238281 -9.132812 13.6875 -8.28125 C 13.132812 -7.425781 12.394531 -6.773438 11.46875 -6.328125 L 15.1875 0 Z M 5.546875 -13.390625 L 5.546875 -9.0625 L 8.4375 -9.0625 C 9.1875 -9.0625 9.773438 -9.265625 10.203125 -9.671875 C 10.640625 -10.078125 10.859375 -10.59375 10.859375 -11.21875 C 10.859375 -11.851562 10.640625 -12.375 10.203125 -12.78125 C 9.773438 -13.1875 9.1875 -13.390625 8.4375 -13.390625 Z M 5.546875 -13.390625 "/></g></g></g><g fill="#000000" fill-opacity="1"><g transform="translate(136.604963, 57.147075)"><g><path d="M 1.90625 0 L 1.90625 -16.734375 L 5.546875 -16.734375 L 5.546875 0 Z M 1.90625 0 "/></g></g></g><g fill="#000000" fill-opacity="1"><g transform="translate(147.384816, 57.147075)"><g><path d="M 9.25 -8.75 L 18.171875 -8.75 C 18.148438 -7.425781 17.929688 -6.207031 17.515625 -5.09375 C 17.109375 -3.988281 16.523438 -3.03125 15.765625 -2.21875 C 15.003906 -1.40625 14.101562 -0.769531 13.0625 -0.3125 C 12.019531 0.132812 10.867188 0.359375 9.609375 0.359375 C 8.378906 0.359375 7.238281 0.144531 6.1875 -0.28125 C 5.132812 -0.71875 4.210938 -1.328125 3.421875 -2.109375 C 2.640625 -2.890625 2.03125 -3.8125 1.59375 -4.875 C 1.164062 -5.945312 0.953125 -7.101562 0.953125 -8.34375 C 0.953125 -9.601562 1.160156 -10.757812 1.578125 -11.8125 C 2.003906 -12.875 2.601562 -13.800781 3.375 -14.59375 C 4.15625 -15.382812 5.070312 -16 6.125 -16.4375 C 7.175781 -16.875 8.3125 -17.09375 9.53125 -17.09375 C 10.925781 -17.09375 12.210938 -16.820312 13.390625 -16.28125 C 14.566406 -15.738281 15.550781 -14.988281 16.34375 -14.03125 C 17.144531 -13.070312 17.671875 -11.960938 17.921875 -10.703125 L 14.203125 -10.703125 C 13.847656 -11.617188 13.253906 -12.335938 12.421875 -12.859375 C 11.597656 -13.390625 10.660156 -13.65625 9.609375 -13.65625 C 8.617188 -13.65625 7.75 -13.425781 7 -12.96875 C 6.25 -12.507812 5.660156 -11.882812 5.234375 -11.09375 C 4.816406 -10.3125 4.609375 -9.394531 4.609375 -8.34375 C 4.609375 -7.3125 4.816406 -6.398438 5.234375 -5.609375 C 5.648438 -4.816406 6.234375 -4.195312 6.984375 -3.75 C 7.734375 -3.300781 8.609375 -3.078125 9.609375 -3.078125 C 10.691406 -3.078125 11.660156 -3.335938 12.515625 -3.859375 C 13.378906 -4.390625 13.960938 -5.085938 14.265625 -5.953125 L 9.25 -5.953125 Z M 9.25 -8.75 "/></g></g></g><g fill="#000000" fill-opacity="1"><g transform="translate(169.755012, 57.147075)"><g><path d="M 11.828125 -16.734375 L 15.4375 -16.734375 L 15.4375 0 L 11.828125 0 L 11.828125 -6.90625 L 5.546875 -6.90625 L 5.546875 0 L 1.90625 0 L 1.90625 -16.734375 L 5.546875 -16.734375 L 5.546875 -10.28125 L 11.828125 -10.28125 Z M 11.828125 -16.734375 "/></g></g></g><g fill="#000000" fill-opacity="1"><g transform="translate(190.452371, 57.147075)"><g><path d="M 13.453125 -16.734375 L 13.453125 -13.359375 L 8.796875 -13.359375 L 8.796875 0 L 5.15625 0 L 5.15625 -13.359375 L 0.53125 -13.359375 L 0.53125 -16.734375 Z M 13.453125 -16.734375 "/></g></g></g><g fill="#000000" fill-opacity="1"><g transform="translate(207.732375, 57.147075)"><g><path d="M 7.453125 0.328125 C 6.179688 0.328125 5.054688 0.0976562 4.078125 -0.359375 C 3.109375 -0.816406 2.347656 -1.476562 1.796875 -2.34375 C 1.253906 -3.207031 0.984375 -4.234375 0.984375 -5.421875 L 4.640625 -5.421875 C 4.640625 -4.609375 4.921875 -4.003906 5.484375 -3.609375 C 6.046875 -3.222656 6.695312 -3.03125 7.4375 -3.03125 C 7.894531 -3.03125 8.328125 -3.101562 8.734375 -3.25 C 9.140625 -3.40625 9.472656 -3.628906 9.734375 -3.921875 C 10.003906 -4.222656 10.140625 -4.582031 10.140625 -5 C 10.140625 -5.425781 9.988281 -5.765625 9.6875 -6.015625 C 9.382812 -6.265625 8.976562 -6.46875 8.46875 -6.625 C 7.957031 -6.78125 7.398438 -6.929688 6.796875 -7.078125 C 6.171875 -7.222656 5.53125 -7.394531 4.875 -7.59375 C 4.21875 -7.800781 3.609375 -8.078125 3.046875 -8.421875 C 2.492188 -8.765625 2.050781 -9.226562 1.71875 -9.8125 C 1.382812 -10.394531 1.21875 -11.132812 1.21875 -12.03125 C 1.21875 -13.632812 1.765625 -14.867188 2.859375 -15.734375 C 3.953125 -16.609375 5.429688 -17.046875 7.296875 -17.046875 C 9.203125 -17.046875 10.679688 -16.5625 11.734375 -15.59375 C 12.785156 -14.632812 13.3125 -13.328125 13.3125 -11.671875 L 9.734375 -11.671875 C 9.734375 -12.378906 9.476562 -12.90625 8.96875 -13.25 C 8.457031 -13.59375 7.867188 -13.765625 7.203125 -13.765625 C 6.609375 -13.765625 6.0625 -13.632812 5.5625 -13.375 C 5.070312 -13.125 4.828125 -12.726562 4.828125 -12.1875 C 4.828125 -11.789062 4.972656 -11.476562 5.265625 -11.25 C 5.566406 -11.019531 5.957031 -10.828125 6.4375 -10.671875 C 6.925781 -10.523438 7.46875 -10.378906 8.0625 -10.234375 C 8.695312 -10.078125 9.347656 -9.890625 10.015625 -9.671875 C 10.679688 -9.453125 11.300781 -9.160156 11.875 -8.796875 C 12.445312 -8.429688 12.910156 -7.945312 13.265625 -7.34375 C 13.628906 -6.738281 13.8125 -5.972656 13.8125 -5.046875 C 13.8125 -3.835938 13.519531 -2.832031 12.9375 -2.03125 C 12.363281 -1.238281 11.597656 -0.644531 10.640625 -0.25 C 9.679688 0.132812 8.617188 0.328125 7.453125 0.328125 Z M 7.453125 0.328125 "/></g></g></g><g fill="#000000" fill-opacity="1"><g transform="translate(225.848792, 57.147075)"><g><path d="M 8.34375 -16.734375 C 9.476562 -16.734375 10.484375 -16.484375 11.359375 -15.984375 C 12.242188 -15.484375 12.945312 -14.796875 13.46875 -13.921875 C 14 -13.054688 14.265625 -12.070312 14.265625 -10.96875 C 14.265625 -9.875 14.003906 -8.890625 13.484375 -8.015625 C 12.972656 -7.148438 12.269531 -6.46875 11.375 -5.96875 C 10.488281 -5.476562 9.476562 -5.234375 8.34375 -5.234375 L 5.546875 -5.234375 L 5.546875 0 L 1.90625 0 L 1.90625 -16.734375 Z M 8.203125 -8.578125 C 8.921875 -8.578125 9.5 -8.800781 9.9375 -9.25 C 10.375 -9.707031 10.59375 -10.28125 10.59375 -10.96875 C 10.59375 -11.675781 10.375 -12.253906 9.9375 -12.703125 C 9.5 -13.160156 8.921875 -13.390625 8.203125 -13.390625 L 5.546875 -13.390625 L 5.546875 -8.578125 Z M 8.203125 -8.578125 "/></g></g></g><g fill="#000000" fill-opacity="1"><g transform="translate(244.036906, 57.147075)"><g><path d="M 9.84375 0.359375 C 8.570312 0.359375 7.394531 0.140625 6.3125 -0.296875 C 5.226562 -0.734375 4.28125 -1.347656 3.46875 -2.140625 C 2.664062 -2.929688 2.039062 -3.851562 1.59375 -4.90625 C 1.15625 -5.96875 0.9375 -7.117188 0.9375 -8.359375 C 0.9375 -9.609375 1.15625 -10.757812 1.59375 -11.8125 C 2.039062 -12.875 2.664062 -13.800781 3.46875 -14.59375 C 4.28125 -15.382812 5.226562 -16 6.3125 -16.4375 C 7.394531 -16.875 8.570312 -17.09375 9.84375 -17.09375 C 11.125 -17.09375 12.304688 -16.875 13.390625 -16.4375 C 14.472656 -16 15.410156 -15.382812 16.203125 -14.59375 C 17.003906 -13.800781 17.628906 -12.875 18.078125 -11.8125 C 18.523438 -10.757812 18.75 -9.609375 18.75 -8.359375 C 18.75 -7.117188 18.523438 -5.96875 18.078125 -4.90625 C 17.628906 -3.851562 17.003906 -2.929688 16.203125 -2.140625 C 15.410156 -1.347656 14.472656 -0.734375 13.390625 -0.296875 C 12.304688 0.140625 11.125 0.359375 9.84375 0.359375 Z M 9.84375 -3.0625 C 10.851562 -3.0625 11.75 -3.289062 12.53125 -3.75 C 13.320312 -4.21875 13.941406 -4.847656 14.390625 -5.640625 C 14.847656 -6.441406 15.078125 -7.347656 15.078125 -8.359375 C 15.078125 -9.367188 14.847656 -10.273438 14.390625 -11.078125 C 13.941406 -11.878906 13.320312 -12.507812 12.53125 -12.96875 C 11.75 -13.4375 10.851562 -13.671875 9.84375 -13.671875 C 8.851562 -13.671875 7.957031 -13.4375 7.15625 -12.96875 C 6.363281 -12.507812 5.738281 -11.878906 5.28125 -11.078125 C 4.820312 -10.273438 4.59375 -9.367188 4.59375 -8.359375 C 4.59375 -7.359375 4.820312 -6.457031 5.28125 -5.65625 C 5.738281 -4.851562 6.363281 -4.21875 7.15625 -3.75 C 7.957031 -3.289062 8.851562 -3.0625 9.84375 -3.0625 Z M 9.84375 -3.0625 "/></g></g></g><g fill="#000000" fill-opacity="1"><g transform="translate(267.028433, 57.147075)"><g><path d="M 13.453125 -16.734375 L 13.453125 -13.359375 L 8.796875 -13.359375 L 8.796875 0 L 5.15625 0 L 5.15625 -13.359375 L 0.53125 -13.359375 L 0.53125 -16.734375 Z M 13.453125 -16.734375 "/></g></g></g><g fill="#000000" fill-opacity="1"><g transform="translate(284.311937, 57.147075)"><g/></g></g><g fill="#000000" fill-opacity="1"><g transform="translate(98.818784, 87.089949)"><g><path d="M 11.984375 -8.828125 C 12.710938 -8.441406 13.28125 -7.898438 13.6875 -7.203125 C 14.09375 -6.515625 14.296875 -5.722656 14.296875 -4.828125 C 14.296875 -3.929688 14.0625 -3.117188 13.59375 -2.390625 C 13.125 -1.660156 12.484375 -1.078125 11.671875 -0.640625 C 10.867188 -0.210938 9.988281 0 9.03125 0 L 1.90625 0 L 1.90625 -16.734375 L 8.84375 -16.734375 C 9.800781 -16.734375 10.65625 -16.546875 11.40625 -16.171875 C 12.164062 -15.796875 12.765625 -15.28125 13.203125 -14.625 C 13.640625 -13.976562 13.859375 -13.25 13.859375 -12.4375 C 13.859375 -11.71875 13.691406 -11.035156 13.359375 -10.390625 C 13.023438 -9.753906 12.566406 -9.234375 11.984375 -8.828125 Z M 10.34375 -11.859375 C 10.34375 -12.378906 10.175781 -12.804688 9.84375 -13.140625 C 9.507812 -13.484375 9.054688 -13.65625 8.484375 -13.65625 L 5.46875 -13.65625 L 5.46875 -10.09375 L 8.484375 -10.09375 C 9.054688 -10.09375 9.507812 -10.257812 9.84375 -10.59375 C 10.175781 -10.925781 10.34375 -11.347656 10.34375 -11.859375 Z M 8.671875 -3.328125 C 9.285156 -3.328125 9.769531 -3.5 10.125 -3.84375 C 10.476562 -4.195312 10.65625 -4.65625 10.65625 -5.21875 C 10.65625 -5.757812 10.476562 -6.203125 10.125 -6.546875 C 9.769531 -6.898438 9.285156 -7.078125 8.671875 -7.078125 L 5.46875 -7.078125 L 5.46875 -3.328125 Z M 8.671875 -3.328125 "/></g></g></g><g fill="#000000" fill-opacity="1"><g transform="translate(117.484846, 87.089949)"><g><path d="M 1.90625 0 L 1.90625 -16.734375 L 5.546875 -16.734375 L 5.546875 0 Z M 1.90625 0 "/></g></g></g><g fill="#000000" fill-opacity="1"><g transform="translate(128.264701, 87.089949)"><g><path d="M 7.453125 0.328125 C 6.179688 0.328125 5.054688 0.0976562 4.078125 -0.359375 C 3.109375 -0.816406 2.347656 -1.476562 1.796875 -2.34375 C 1.253906 -3.207031 0.984375 -4.234375 0.984375 -5.421875 L 4.640625 -5.421875 C 4.640625 -4.609375 4.921875 -4.003906 5.484375 -3.609375 C 6.046875 -3.222656 6.695312 -3.03125 7.4375 -3.03125 C 7.894531 -3.03125 8.328125 -3.101562 8.734375 -3.25 C 9.140625 -3.40625 9.472656 -3.628906 9.734375 -3.921875 C 10.003906 -4.222656 10.140625 -4.582031 10.140625 -5 C 10.140625 -5.425781 9.988281 -5.765625 9.6875 -6.015625 C 9.382812 -6.265625 8.976562 -6.46875 8.46875 -6.625 C 7.957031 -6.78125 7.398438 -6.929688 6.796875 -7.078125 C 6.171875 -7.222656 5.53125 -7.394531 4.875 -7.59375 C 4.21875 -7.800781 3.609375 -8.078125 3.046875 -8.421875 C 2.492188 -8.765625 2.050781 -9.226562 1.71875 -9.8125 C 1.382812 -10.394531 1.21875 -11.132812 1.21875 -12.03125 C 1.21875 -13.632812 1.765625 -14.867188 2.859375 -15.734375 C 3.953125 -16.609375 5.429688 -17.046875 7.296875 -17.046875 C 9.203125 -17.046875 10.679688 -16.5625 11.734375 -15.59375 C 12.785156 -14.632812 13.3125 -13.328125 13.3125 -11.671875 L 9.734375 -11.671875 C 9.734375 -12.378906 9.476562 -12.90625 8.96875 -13.25 C 8.457031 -13.59375 7.867188 -13.765625 7.203125 -13.765625 C 6.609375 -13.765625 6.0625 -13.632812 5.5625 -13.375 C 5.070312 -13.125 4.828125 -12.726562 4.828125 -12.1875 C 4.828125 -11.789062 4.972656 -11.476562 5.265625 -11.25 C 5.566406 -11.019531 5.957031 -10.828125 6.4375 -10.671875 C 6.925781 -10.523438 7.46875 -10.378906 8.0625 -10.234375 C 8.695312 -10.078125 9.347656 -9.890625 10.015625 -9.671875 C 10.679688 -9.453125 11.300781 -9.160156 11.875 -8.796875 C 12.445312 -8.429688 12.910156 -7.945312 13.265625 -7.34375 C 13.628906 -6.738281 13.8125 -5.972656 13.8125 -5.046875 C 13.8125 -3.835938 13.519531 -2.832031 12.9375 -2.03125 C 12.363281 -1.238281 11.597656 -0.644531 10.640625 -0.25 C 9.679688 0.132812 8.617188 0.328125 7.453125 0.328125 Z M 7.453125 0.328125 "/></g></g></g><g fill="#000000" fill-opacity="1"><g transform="translate(146.381121, 87.089949)"><g><path d="M 13.453125 -16.734375 L 13.453125 -13.359375 L 8.796875 -13.359375 L 8.796875 0 L 5.15625 0 L 5.15625 -13.359375 L 0.53125 -13.359375 L 0.53125 -16.734375 Z M 13.453125 -16.734375 "/></g></g></g><g fill="#000000" fill-opacity="1"><g transform="translate(163.661131, 87.089949)"><g><path d="M 11.109375 0 L 7.859375 -5.71875 L 5.546875 -5.71875 L 5.546875 0 L 1.90625 0 L 1.90625 -16.734375 L 8.671875 -16.734375 C 9.785156 -16.734375 10.78125 -16.492188 11.65625 -16.015625 C 12.539062 -15.535156 13.238281 -14.878906 13.75 -14.046875 C 14.257812 -13.222656 14.515625 -12.269531 14.515625 -11.1875 C 14.515625 -10.101562 14.238281 -9.132812 13.6875 -8.28125 C 13.132812 -7.425781 12.394531 -6.773438 11.46875 -6.328125 L 15.1875 0 Z M 5.546875 -13.390625 L 5.546875 -9.0625 L 8.4375 -9.0625 C 9.1875 -9.0625 9.773438 -9.265625 10.203125 -9.671875 C 10.640625 -10.078125 10.859375 -10.59375 10.859375 -11.21875 C 10.859375 -11.851562 10.640625 -12.375 10.203125 -12.78125 C 9.773438 -13.1875 9.1875 -13.390625 8.4375 -13.390625 Z M 5.546875 -13.390625 "/></g></g></g><g fill="#000000" fill-opacity="1"><g transform="translate(182.78125, 87.089949)"><g><path d="M 9.84375 0.359375 C 8.570312 0.359375 7.394531 0.140625 6.3125 -0.296875 C 5.226562 -0.734375 4.28125 -1.347656 3.46875 -2.140625 C 2.664062 -2.929688 2.039062 -3.851562 1.59375 -4.90625 C 1.15625 -5.96875 0.9375 -7.117188 0.9375 -8.359375 C 0.9375 -9.609375 1.15625 -10.757812 1.59375 -11.8125 C 2.039062 -12.875 2.664062 -13.800781 3.46875 -14.59375 C 4.28125 -15.382812 5.226562 -16 6.3125 -16.4375 C 7.394531 -16.875 8.570312 -17.09375 9.84375 -17.09375 C 11.125 -17.09375 12.304688 -16.875 13.390625 -16.4375 C 14.472656 -16 15.410156 -15.382812 16.203125 -14.59375 C 17.003906 -13.800781 17.628906 -12.875 18.078125 -11.8125 C 18.523438 -10.757812 18.75 -9.609375 18.75 -8.359375 C 18.75 -7.117188 18.523438 -5.96875 18.078125 -4.90625 C 17.628906 -3.851562 17.003906 -2.929688 16.203125 -2.140625 C 15.410156 -1.347656 14.472656 -0.734375 13.390625 -0.296875 C 12.304688 0.140625 11.125 0.359375 9.84375 0.359375 Z M 9.84375 -3.0625 C 10.851562 -3.0625 11.75 -3.289062 12.53125 -3.75 C 13.320312 -4.21875 13.941406 -4.847656 14.390625 -5.640625 C 14.847656 -6.441406 15.078125 -7.347656 15.078125 -8.359375 C 15.078125 -9.367188 14.847656 -10.273438 14.390625 -11.078125 C 13.941406 -11.878906 13.320312 -12.507812 12.53125 -12.96875 C 11.75 -13.4375 10.851562 -13.671875 9.84375 -13.671875 C 8.851562 -13.671875 7.957031 -13.4375 7.15625 -12.96875 C 6.363281 -12.507812 5.738281 -11.878906 5.28125 -11.078125 C 4.820312 -10.273438 4.59375 -9.367188 4.59375 -8.359375 C 4.59375 -7.359375 4.820312 -6.457031 5.28125 -5.65625 C 5.738281 -4.851562 6.363281 -4.21875 7.15625 -3.75 C 7.957031 -3.289062 8.851562 -3.0625 9.84375 -3.0625 Z M 9.84375 -3.0625 "/></g></g></g><g clip-path="url(#2b9cd603e8)"><path fill="#fe1f3c" d="M 53.195312 26.320312 C 61.839844 26.320312 69.808594 29.957031 75.507812 35.488281 C 81.039062 41.1875 84.675781 49.15625 84.675781 57.796875 C 84.675781 61.773438 83.8125 65.578125 82.59375 69.046875 C 81.039062 72.683594 79.128906 75.964844 76.539062 78.910156 L 76.371094 78.910156 C 73.597656 82.023438 70.484375 84.964844 67.203125 88.078125 L 66.863281 87.910156 L 64.089844 85.136719 L 55.953125 76.996094 L 58.898438 74.054688 L 67.203125 82.191406 C 69.285156 80.109375 71.535156 78.046875 73.257812 75.964844 L 73.425781 75.964844 C 75.675781 73.546875 77.402344 70.605469 78.621094 67.492188 C 79.652344 64.546875 80.347656 61.265625 80.347656 57.796875 C 80.347656 50.1875 77.402344 43.4375 72.394531 38.597656 C 67.558594 33.59375 60.808594 30.648438 53.195312 30.648438 C 45.753906 30.648438 39.023438 33.59375 33.996094 38.597656 C 29.160156 43.4375 26.046875 50.1875 26.046875 57.796875 C 26.046875 61.265625 26.742188 64.546875 27.941406 67.492188 C 29.160156 70.605469 30.886719 73.546875 33.136719 75.964844 C 35.027344 78.046875 36.941406 80.109375 39.191406 82.023438 L 50.085938 71.128906 L 45.753906 66.796875 C 42.976562 68.355469 39.359375 68.015625 36.941406 65.578125 L 28.992188 57.628906 L 31.242188 55.378906 L 37.824219 61.960938 L 39.902344 59.878906 L 33.324219 53.296875 L 35.402344 51.21875 L 41.984375 57.796875 L 44.066406 55.71875 L 37.484375 49.136719 L 39.566406 47.054688 L 47.515625 55.003906 C 49.933594 57.421875 50.460938 61.0625 48.902344 63.816406 L 53.046875 68.148438 L 57.546875 63.648438 C 56.160156 60.703125 57.023438 56.5625 60.132812 53.449219 C 63.769531 49.8125 69.132812 49.117188 72.078125 52.0625 C 75.019531 55.003906 74.328125 60.367188 70.691406 64.003906 C 67.578125 67.117188 63.433594 67.980469 60.492188 66.59375 L 55.992188 71.09375 L 53.027344 74.054688 L 52.335938 74.746094 L 42.136719 84.949219 L 39.359375 87.722656 L 39.191406 87.890625 C 35.910156 84.949219 32.796875 81.835938 30.023438 78.890625 C 27.433594 75.949219 25.355469 72.667969 23.964844 69.03125 C 22.578125 65.5625 21.886719 61.773438 21.886719 57.78125 C 21.886719 49.136719 25.355469 41.167969 31.054688 35.46875 C 36.773438 29.957031 44.554688 26.320312 53.195312 26.320312 Z M 53.195312 18.367188 C 58.558594 18.367188 63.582031 19.398438 68.253906 21.3125 C 73.089844 23.394531 77.421875 26.148438 81.058594 29.957031 C 84.863281 33.59375 87.640625 37.90625 89.703125 42.761719 C 91.59375 47.429688 92.644531 52.625 92.644531 57.816406 C 92.644531 60.234375 92.476562 62.65625 91.953125 64.90625 C 91.613281 67.324219 90.921875 69.742188 90.058594 71.992188 C 89.195312 74.242188 88.164062 76.324219 86.777344 78.386719 C 85.558594 80.464844 84 82.359375 82.445312 84.273438 C 80.890625 85.996094 79.164062 87.742188 77.609375 89.296875 C 75.882812 90.855469 74.328125 92.578125 72.582031 93.964844 L 69.472656 96.910156 L 67.222656 98.992188 C 65.664062 100.378906 64.277344 101.765625 63.753906 102.101562 C 62.722656 103.132812 61.503906 104.183594 60.285156 105.382812 L 53.195312 112.132812 L 46.277344 105.382812 C 44.890625 104.164062 43.859375 103.132812 42.808594 102.101562 C 41.777344 101.242188 40.558594 100.023438 39.339844 98.992188 C 37.449219 97.265625 35.535156 95.523438 33.640625 93.796875 C 32.085938 92.242188 30.359375 90.683594 28.804688 89.128906 C 27.246094 87.574219 25.691406 86.015625 24.136719 84.292969 C 22.410156 82.398438 21.023438 80.484375 19.636719 78.402344 C 18.4375 76.304688 17.40625 74.242188 16.523438 71.992188 C 15.660156 69.742188 14.96875 67.324219 14.441406 64.90625 C 14.105469 62.65625 13.917969 60.234375 13.917969 57.816406 C 13.917969 52.625 14.949219 47.429688 16.859375 42.761719 C 18.753906 37.925781 21.699219 33.59375 25.335938 29.957031 C 29.140625 26.148438 33.472656 23.375 38.140625 21.3125 C 42.996094 19.398438 48.003906 18.367188 53.195312 18.367188 Z M 66.863281 24.949219 C 62.535156 23.226562 58.054688 22.363281 53.195312 22.363281 C 48.527344 22.363281 43.859375 23.226562 39.699219 24.949219 C 35.367188 26.675781 31.558594 29.28125 28.109375 32.730469 C 24.828125 36.011719 22.222656 39.988281 20.5 44.148438 C 18.773438 48.480469 17.722656 52.960938 17.722656 57.816406 C 17.722656 59.898438 17.890625 62.148438 18.417969 64.210938 C 18.753906 66.460938 19.28125 68.542969 20.140625 70.605469 C 21.003906 72.496094 21.867188 74.410156 23.085938 76.304688 C 24.117188 78.199219 25.503906 79.941406 26.890625 81.496094 L 27.058594 81.667969 C 28.449219 83.222656 30.003906 84.777344 31.558594 86.335938 C 33.285156 88.058594 34.839844 89.449219 36.398438 91.003906 L 39.339844 93.777344 L 41.929688 96.027344 C 42.960938 97.058594 44.179688 98.109375 45.398438 99.308594 C 46.785156 100.527344 47.984375 101.558594 49.035156 102.589844 L 53.179688 106.734375 L 57.507812 102.589844 C 58.539062 101.558594 59.757812 100.507812 60.976562 99.308594 C 62.871094 97.585938 63.753906 96.722656 64.613281 96.027344 L 66.863281 93.945312 L 69.976562 91.171875 C 71.535156 89.617188 73.257812 88.058594 74.816406 86.503906 C 76.371094 84.949219 77.925781 83.222656 79.484375 81.667969 L 79.484375 81.496094 C 81.039062 79.941406 82.257812 78.214844 83.457031 76.304688 C 84.675781 74.410156 85.539062 72.496094 86.402344 70.605469 C 87.09375 68.523438 87.789062 66.460938 88.125 64.210938 C 88.464844 62.128906 88.652344 59.878906 88.652344 57.816406 C 88.652344 52.980469 87.789062 48.480469 86.0625 44.148438 C 84.339844 40.003906 81.734375 36.011719 78.285156 32.730469 C 74.984375 29.261719 71.007812 26.675781 66.863281 24.949219 Z M 64.089844 91.023438 C 63.394531 91.714844 62.535156 92.410156 61.839844 93.101562 C 59.421875 95.183594 57.003906 97.433594 54.753906 99.683594 L 53.195312 101.070312 L 51.808594 99.683594 C 49.390625 97.433594 47.140625 95.183594 44.722656 93.101562 C 43.859375 92.242188 42.996094 91.546875 42.136719 90.855469 L 45.246094 87.742188 C 45.941406 88.433594 46.804688 89.296875 47.496094 89.992188 C 49.578125 91.714844 51.472656 93.460938 53.195312 95.183594 C 55.089844 93.460938 57.003906 91.714844 58.898438 89.992188 C 59.589844 89.296875 60.285156 88.605469 61.148438 87.910156 Z M 64.089844 91.023438 " fill-opacity="1" fill-rule="nonzero"/></g></svg>