<?xml version="1.0" encoding="UTF-8"?>
<svg width="217px" height="42px" viewBox="0 0 217 42" version="1.1" xmlns="http://www.w3.org/2000/svg" xmlns:xlink="http://www.w3.org/1999/xlink">
    <title>Frost-logo</title>
    <g id="PAGE---Search-Results" stroke="none" stroke-width="1" fill="none" fill-rule="evenodd">
        <g id="Go-Search-Results-Left-Filters" transform="translate(-50.000000, -29.000000)">
            <g id="element-/-logo-lockup" transform="translate(50.000000, 25.000000)">
                <g id="logo" transform="translate(0.000000, 4.545455)" fill="#FFFFFF">
                    <polygon id="Fill-1" points="1.46432965 7.57575758 0 11.7771876 2.47602624 10.0272387 5.66287051 16.6666667 12.137931 10.1804562 5.66287051 7.57575758"></polygon>
                    <polygon id="Fill-2" points="19.1356955 7.44696087 6.06896552 20.7658201 7.33915834 40.9090909 7.33937168 40.9090909 18.9428413 23.2805066 38.1222409 19.0113826 40.1491308 15.789078 21.492187 19.9806519 22.3314444 18.9664852 41.0022549 14.3390409 43.4556001 10.4724901 24.1315598 15.0677114 25.2989254 13.8112274 44.5224853 8.96874794 46.655829 5.37050775 27.2424015 10.2576698 28.0882723 8.9513475 47.829168 3.70565035 50.0689655 0.00021482031 50.0689655 0"></polygon>
                </g>
                <path d="M67.0579203,39.3939394 L67.0579203,25.3077652 L81.1427802,25.3077652 L81.1427802,23.1326941 L67.0579203,23.1326941 L67.0579203,11.4080256 L83.2171336,11.4080256 L83.2171336,9.23295455 L64.5064655,9.23295455 L64.5064655,39.3939394 L67.0579203,39.3939394 Z M87.8844289,39.3939394 L90.9959591,30.9422348 L104.707435,30.9422348 L107.839709,39.3939394 L110.494881,39.3939394 L99.065194,9.23295455 L96.6382004,9.23295455 L85.2085129,39.3939394 L87.8844289,39.3939394 Z M103.898438,28.7671638 L91.7842134,28.7671638 L97.8413254,12.3401989 L103.898438,28.7671638 Z M132.420797,39.3939394 L132.420797,37.2395833 L117.506196,37.2395833 L117.506196,9.23295455 L114.933998,9.23295455 L114.933998,39.3939394 L132.420797,39.3939394 Z M147.584321,39.8082386 C150.792654,39.8082386 153.361395,38.9658302 155.290544,37.2810133 C157.219693,35.5961963 158.35713,33.1656408 158.702856,29.9893466 L158.702856,29.9893466 L156.130657,29.9893466 C155.81259,32.5441919 154.975934,34.4603259 153.62069,35.7377486 C152.265445,37.0151712 150.253323,37.6538826 147.584321,37.6538826 C144.887662,37.6538826 142.74762,36.6181345 141.164197,34.5466383 C139.580774,32.475142 138.789062,29.6993371 138.789062,26.2192235 L138.789062,26.2192235 L138.789062,22.5319602 C138.789062,18.9275568 139.601518,16.103417 141.226428,14.0595407 C142.851338,12.0156645 145.032866,10.9937263 147.771013,10.9937263 C152.707974,10.9937263 155.494522,13.5554766 156.130657,18.6789773 L156.130657,18.6789773 L158.702856,18.6789773 C158.398617,15.5993529 157.309582,13.1860598 155.435749,11.439098 C153.561916,9.69213621 151.007004,8.8186553 147.771013,8.8186553 C145.475395,8.8186553 143.445986,9.38141177 141.682786,10.5069247 C139.919585,11.6324377 138.567798,13.2309422 137.627425,15.3024384 C136.687051,17.3739347 136.216864,19.7492503 136.216864,22.4283854 L136.216864,22.4283854 L136.216864,26.3435133 C136.230693,28.9812184 136.707795,31.3254616 137.648168,33.3762429 C138.588542,35.4270241 139.919585,37.0117188 141.641298,38.1303267 C143.363012,39.2489347 145.344019,39.8082386 147.584321,39.8082386 Z M175.484375,39.8082386 C177.82148,39.8082386 179.882004,39.2420297 181.665948,38.1096117 C183.449892,36.9771938 184.822423,35.3614268 185.78354,33.2623106 C186.744657,31.1631944 187.225216,28.7257339 187.225216,25.949929 L187.225216,25.949929 L187.225216,22.3455256 C187.183728,19.6525805 186.678969,17.2841698 185.710937,15.2402936 C184.742906,13.1964173 183.370375,11.6151752 181.593346,10.4965672 C179.816316,9.37795928 177.766164,8.8186553 175.442888,8.8186553 C173.119612,8.8186553 171.066002,9.38831676 169.282058,10.5276397 C167.498114,11.6669626 166.118669,13.2965396 165.143723,15.4163707 C164.168777,17.5362019 163.681304,19.9702099 163.681304,22.7183949 L163.681304,22.7183949 L163.681304,25.8256392 C163.681304,30.1067314 164.766882,33.5074377 166.938039,36.027758 C169.109195,38.5480784 171.957974,39.8082386 175.484375,39.8082386 Z M175.484375,37.5917377 C172.635596,37.5917377 170.381466,36.5456321 168.721983,34.4534209 C167.0625,32.3612098 166.232759,29.5267124 166.232759,25.949929 L166.232759,25.949929 L166.232759,22.8012547 C166.232759,19.1001815 167.065957,16.2173493 168.732355,14.152758 C170.398752,12.0881668 172.635596,11.0558712 175.442888,11.0558712 C178.305496,11.0558712 180.559626,12.0847143 182.20528,14.1424006 C183.850934,16.2000868 184.673761,19.0449416 184.673761,22.676965 L184.673761,22.676965 L184.673761,25.8670691 C184.673761,29.5543324 183.864763,32.4302596 182.246767,34.4948509 C180.628772,36.5594421 178.374641,37.5917377 175.484375,37.5917377 Z M196.227909,39.3939394 L196.227909,13.5830966 L213.590248,39.3939394 L216.141703,39.3939394 L216.141703,9.23295455 L213.610991,9.23295455 L213.610991,35.0645123 L196.227909,9.23295455 L193.655711,9.23295455 L193.655711,39.3939394 L196.227909,39.3939394 Z" id="FALCON" fill="#EEEEEE" fill-rule="nonzero"></path>
            </g>
        </g>
    </g>
</svg>
